<svg width="120" height="120" viewBox="0 0 120 120" fill="none" xmlns="http://www.w3.org/2000/svg">
<circle cx="60" cy="60" r="59.5" fill="white" stroke="#BD4BE1"/>
<mask id="mask0_654_550" style="mask-type:alpha" maskUnits="userSpaceOnUse" x="0" y="0" width="120" height="120">
<circle cx="60" cy="60" r="60" fill="#C4C4C4"/>
</mask>
<g mask="url(#mask0_654_550)">
<path fill-rule="evenodd" clip-rule="evenodd" d="M56.5699 104.76C61.5944 104.879 66.3789 103.911 70.6738 102.082C78.2329 101.528 89.9604 95.1653 93.4442 88.0489C95.3551 83.2703 93.6178 76.8511 89.8475 72.9553C89.3062 56.6764 75.4226 43.432 58.0502 43.0231C40.0759 42.6 25.1735 56.0774 24.7648 73.1257C24.7535 73.5968 24.7534 74.0657 24.7642 74.5322C23.8982 75.4643 23.1964 76.5511 22.7064 77.7765C20.141 87.9093 30.3731 95.2758 37.4766 98.3409C42.7753 102.219 49.3733 104.591 56.5699 104.76Z" fill="url(#paint0_linear_654_550)"/>
<path fill-rule="evenodd" clip-rule="evenodd" d="M73.1951 92.6736C79.7793 92.4919 85.5942 88.667 85.3439 79.4326C85.0936 70.1983 81.9426 58.7414 71.6426 59.0257C65.0584 59.2074 59.5919 71.5818 59.8422 80.8162C60.0924 90.0505 66.6108 92.8552 73.1951 92.6736ZM43.1244 91.9729C49.7087 91.7912 55.3913 88.9426 55.1411 79.7082C54.8908 70.4739 52.7493 58.6766 42.218 58.5324C35.6338 58.7141 29.2562 70.26 29.5065 79.4943C29.7568 88.7287 36.5402 92.1546 43.1244 91.9729Z" fill="#1C1C1C"/>
<path fill-rule="evenodd" clip-rule="evenodd" d="M73.1941 95.2468C79.7783 95.0651 85.5932 91.2402 85.3429 82.0059C85.0926 72.7715 81.9416 61.3147 71.6417 61.5989C65.0574 61.7806 59.5909 74.1551 59.8412 83.3894C60.0915 92.6237 66.6099 95.4285 73.1941 95.2468ZM43.1234 94.5462C49.7077 94.3645 55.3904 91.5158 55.1401 82.2815C54.8898 73.0471 52.7483 61.2498 42.2171 61.1057C35.6328 61.2873 29.2552 72.8332 29.5055 82.0676C29.7558 91.3019 36.5392 94.7278 43.1234 94.5462Z" fill="#FEFFFA"/>
<ellipse rx="28.9484" ry="31.029" transform="matrix(0.941981 0.335667 -0.258476 0.966018 60.5308 119.729)" fill="url(#paint1_linear_654_550)"/>
<ellipse rx="24.1237" ry="26.5963" transform="matrix(0.941981 0.335667 -0.258476 0.966018 61.6689 119.197)" fill="url(#paint2_linear_654_550)"/>
<path d="M88.2324 86.4017C87.3128 94.9207 72.5958 100.968 56.7549 100.866C40.914 100.763 28.8457 94.0521 26.3186 88.1514C23.071 76.5152 39.9809 73.2825 56.2704 80.8541C75.8604 74.2476 90.6863 76.1946 88.2324 86.4017Z" fill="#FEFFFA"/>
<path d="M42.3609 97.8957C46.3364 99.9761 56.9744 89.6388 61.0693 93.6687C60.5407 99.3225 56.111 113.987 42.5384 114.162C41.0821 114.369 27.4905 110.87 31.5117 101.114C33.5281 97.2561 38.3855 95.8153 42.3609 97.8957Z" fill="url(#paint3_linear_654_550)"/>
<path d="M72.3624 99.5958C69.1402 102.537 56.3042 95.1738 53.4851 100.01C55.4848 105.299 63.5744 118.287 76.5036 115.217C77.9407 115.068 89.9145 108.475 83.5128 100.09C80.5768 96.8762 75.5846 96.655 72.3624 99.5958Z" fill="url(#paint4_linear_654_550)"/>
<path fill-rule="evenodd" clip-rule="evenodd" d="M49.616 80.445C49.938 79.1487 50.0146 77.7241 49.7942 76.2541C49.026 71.1309 44.9423 67.3957 40.6729 67.9112C36.4035 68.4267 33.5651 72.9978 34.3333 78.1209C34.4886 79.157 34.7796 80.1364 35.1803 81.0353L49.616 80.445Z" fill="#EFEFEF"/>
<mask id="path-12-inside-1_654_550" fill="white">
<path fill-rule="evenodd" clip-rule="evenodd" d="M49.4953 81.1132C49.7011 80.3999 49.8371 79.6432 49.8921 78.856C50.2226 74.1193 47.4902 70.0713 43.789 69.8144C40.0878 69.5576 36.8194 73.1892 36.4888 77.9259C36.4061 79.1108 36.5151 80.2526 36.783 81.3028L49.4953 81.1132Z"/>
</mask>
<path fill-rule="evenodd" clip-rule="evenodd" d="M49.4953 81.1132C49.7011 80.3999 49.8371 79.6432 49.8921 78.856C50.2226 74.1193 47.4902 70.0713 43.789 69.8144C40.0878 69.5576 36.8194 73.1892 36.4888 77.9259C36.4061 79.1108 36.5151 80.2526 36.783 81.3028L49.4953 81.1132Z" fill="#FEFFFA"/>
<path d="M49.892 78.8561L50.8895 78.9258L50.8895 78.9258L49.892 78.8561ZM49.4953 81.1133L49.5102 82.1132L50.2508 82.1022L50.456 81.3905L49.4953 81.1133ZM43.7889 69.8145L43.7198 70.8121L43.7198 70.8121L43.7889 69.8145ZM36.4888 77.9259L37.4863 77.9956L37.4863 77.9956L36.4888 77.9259ZM36.7829 81.3028L35.814 81.55L36.0091 82.3146L36.7979 82.3028L36.7829 81.3028ZM48.8945 78.7863C48.8444 79.5036 48.7206 80.1907 48.5345 80.8361L50.456 81.3905C50.6814 80.6091 50.8297 79.7829 50.8895 78.9258L48.8945 78.7863ZM43.7198 70.8121C46.6546 71.0158 49.2035 74.3576 48.8945 78.7863L50.8895 78.9258C51.2416 73.8812 48.3256 69.1269 43.8581 68.8168L43.7198 70.8121ZM37.4863 77.9956C37.7954 73.5668 40.7842 70.6084 43.7198 70.8121L43.8581 68.8168C39.3912 68.5068 35.8433 72.8117 35.4912 77.8562L37.4863 77.9956ZM37.7519 81.0557C37.5107 80.1103 37.4109 79.0755 37.4863 77.9956L35.4912 77.8562C35.4012 79.1462 35.5194 80.395 35.814 81.55L37.7519 81.0557ZM36.7979 82.3028L49.5102 82.1132L49.4803 80.1133L36.768 80.3029L36.7979 82.3028Z" fill="url(#paint5_linear_654_550)" mask="url(#path-12-inside-1_654_550)"/>
<path fill-rule="evenodd" clip-rule="evenodd" d="M49.0384 80.7435C49.3149 80.0867 49.4871 79.3574 49.5277 78.5851C49.6882 75.5261 47.7218 72.9494 45.1358 72.8298C42.5497 72.7102 40.3232 75.093 40.1627 78.152C40.1117 79.1239 40.2754 80.0472 40.6055 80.8585L49.0384 80.7435Z" fill="url(#paint6_linear_654_550)"/>
<ellipse cx="45.8564" cy="77.7691" rx="3.5822" ry="3.5846" transform="rotate(21.7969 45.8564 77.7691)" fill="#171715"/>
<ellipse cx="44.5527" cy="76.5528" rx="1.19407" ry="1.19487" transform="rotate(21.7969 44.5527 76.5528)" fill="#FEFEFC"/>
<ellipse cx="44.5527" cy="76.5528" rx="1.19407" ry="1.19487" transform="rotate(21.7969 44.5527 76.5528)" fill="#FEFEFC"/>
<ellipse cx="44.5527" cy="76.5528" rx="1.19407" ry="1.19487" transform="rotate(21.7969 44.5527 76.5528)" fill="#FEFEFC"/>
<ellipse cx="46.6205" cy="78.6211" rx="0.477627" ry="0.477947" transform="rotate(21.7969 46.6205 78.6211)" fill="#FEFEFC"/>
<ellipse cx="46.6205" cy="78.6211" rx="0.477627" ry="0.477947" transform="rotate(21.7969 46.6205 78.6211)" fill="#FEFEFC"/>
<ellipse cx="46.6205" cy="78.6211" rx="0.477627" ry="0.477947" transform="rotate(21.7969 46.6205 78.6211)" fill="#FEFEFC"/>
<path fill-rule="evenodd" clip-rule="evenodd" d="M80.78 80.3454C81.0101 79.5441 81.1572 78.6904 81.2078 77.7982C81.5126 72.4293 78.211 67.6999 73.8335 67.235C69.4559 66.7701 65.6601 70.7455 65.3553 76.1145C65.2791 77.4575 65.4285 78.7605 65.764 79.9667L80.78 80.3454Z" fill="#EFEFEF"/>
<mask id="path-19-inside-2_654_550" fill="white">
<path fill-rule="evenodd" clip-rule="evenodd" d="M79.9007 81.0638C80.1447 80.3743 80.3227 79.6382 80.4228 78.8673C81.0249 74.2285 78.5746 70.0876 74.95 69.6183C71.3253 69.1491 67.8989 72.5292 67.2968 77.168C67.1462 78.3284 67.1866 79.4577 67.3886 80.5061L79.9007 81.0638Z"/>
</mask>
<path fill-rule="evenodd" clip-rule="evenodd" d="M79.9007 81.0638C80.1447 80.3743 80.3227 79.6382 80.4228 78.8673C81.0249 74.2285 78.5746 70.0876 74.95 69.6183C71.3253 69.1491 67.8989 72.5292 67.2968 77.168C67.1462 78.3284 67.1866 79.4577 67.3886 80.5061L79.9007 81.0638Z" fill="#FEFFFA"/>
<path d="M80.4227 78.8674L79.4311 78.7385L79.4311 78.7385L80.4227 78.8674ZM79.9006 81.0638L79.8562 82.0629L80.5961 82.0959L80.8432 81.3976L79.9006 81.0638ZM74.9499 69.6184L74.8216 70.6102L74.8216 70.6102L74.9499 69.6184ZM67.2967 77.168L68.2883 77.2969L68.2883 77.2969L67.2967 77.168ZM67.3885 80.5061L66.4067 80.6953L66.556 81.4701L67.3441 81.5052L67.3885 80.5061ZM79.4311 78.7385C79.3401 79.4399 79.1784 80.1073 78.958 80.73L80.8432 81.3976C81.1108 80.6414 81.3052 79.8366 81.4143 78.9962L79.4311 78.7385ZM74.8216 70.6102C77.6845 70.9808 79.9935 74.4058 79.4311 78.7385L81.4143 78.9962C82.0561 74.0513 79.4646 69.1945 75.0782 68.6266L74.8216 70.6102ZM68.2883 77.2969C68.8507 72.9641 71.9581 70.2395 74.8216 70.6102L75.0782 68.6266C70.6924 68.0588 66.947 72.0943 66.3052 77.0392L68.2883 77.2969ZM68.3704 80.317C68.1888 79.3748 68.1513 78.3529 68.2883 77.2969L66.3052 77.0392C66.141 78.304 66.1842 79.5407 66.4067 80.6953L68.3704 80.317ZM67.3441 81.5052L79.8562 82.0629L79.945 80.0647L67.4329 79.507L67.3441 81.5052Z" fill="url(#paint7_linear_654_550)" mask="url(#path-19-inside-2_654_550)"/>
<path fill-rule="evenodd" clip-rule="evenodd" d="M79.5003 81.4937C79.836 80.8688 80.0733 80.1614 80.182 79.3977C80.6125 76.3733 78.8625 73.6132 76.2734 73.2329C73.6842 72.8526 71.2364 74.996 70.8059 78.0204C70.6691 78.9814 70.7525 79.9157 71.0129 80.7554L79.5003 81.4937Z" fill="url(#paint8_linear_654_550)"/>
<ellipse cx="76.1044" cy="78.0261" rx="3.5822" ry="3.5846" transform="rotate(21.7969 76.1044 78.0261)" fill="#171715"/>
<ellipse cx="74.5527" cy="76.5528" rx="1.19407" ry="1.19487" transform="rotate(21.7969 74.5527 76.5528)" fill="#FEFEFC"/>
<ellipse cx="74.5527" cy="76.5528" rx="1.19407" ry="1.19487" transform="rotate(21.7969 74.5527 76.5528)" fill="#FEFEFC"/>
<ellipse cx="74.5527" cy="76.5528" rx="1.19407" ry="1.19487" transform="rotate(21.7969 74.5527 76.5528)" fill="#FEFEFC"/>
<ellipse cx="76.6205" cy="78.6211" rx="0.477627" ry="0.477947" transform="rotate(21.7969 76.6205 78.6211)" fill="#FEFEFC"/>
<ellipse cx="76.6205" cy="78.6211" rx="0.477627" ry="0.477947" transform="rotate(21.7969 76.6205 78.6211)" fill="#FEFEFC"/>
<ellipse cx="76.6205" cy="78.6211" rx="0.477627" ry="0.477947" transform="rotate(21.7969 76.6205 78.6211)" fill="#FEFEFC"/>
<path d="M74.6146 63.7393C76.8335 64.1972 77.3 65.2367 77.3865 65.623C76.8204 66.1235 76.0271 65.1109 74.6346 65.1322C72.6863 65.1619 71.3221 65.4555 71.2357 65.0692C71.1493 64.6829 72.156 63.6949 74.6146 63.7393Z" fill="#CFCFCF"/>
<path d="M39.9244 63.8043C42.1764 63.5529 42.9416 64.3969 43.1432 64.7374C42.7596 65.3885 41.692 64.6712 40.3742 65.1224C38.5303 65.7537 37.3237 66.4551 37.122 66.1145C36.9204 65.774 37.5724 64.523 39.9244 63.8043Z" fill="#CFCFCF"/>
<path d="M63.8672 82.0861C65.0479 83.3622 64.919 85.3097 63.6117 86.4567C61.1362 88.6286 58.4437 89.0274 57.7867 89.0808C55.5175 89.2651 53.5771 88.682 51.6231 87.055C50.7489 86.3271 50.2804 85.1827 50.8014 84.1706C51.8275 82.1772 54.3524 79.7318 56.1122 78.5615C56.9123 78.0294 57.9096 78.0551 58.7827 78.4553C60.9751 79.4602 62.6929 80.8169 63.8672 82.0861Z" fill="#F3F3F3"/>
<path d="M63.2276 80.2078C64.7714 81.456 64.6226 83.7147 62.9651 84.8089C60.6311 86.3497 58.2682 86.6728 57.6588 86.7223C55.512 86.8968 53.6675 86.4851 51.8388 85.2925C50.7674 84.5938 50.2524 83.2985 50.9992 82.2592C52.2056 80.5804 54.6326 78.6353 56.2797 77.7319C57.001 77.3363 57.8472 77.3557 58.6191 77.6394C60.527 78.3407 62.077 79.2775 63.2276 80.2078Z" fill="#F8B274"/>
<path d="M50.79 83.386L53.7544 84.3953C55.8597 85.1122 58.1442 85.106 60.2462 84.3777L64.16 83.0218L60.7983 84.4237C58.2476 85.4873 55.3712 85.4475 52.8518 84.3138L50.79 83.386Z" fill="#D69656"/>
<circle opacity="0.25" cx="83.4152" cy="86.7487" r="7.5" transform="rotate(21.7969 83.4152 86.7487)" fill="url(#paint9_radial_654_550)"/>
<circle opacity="0.25" cx="32.2111" cy="85.7487" r="7.5" transform="rotate(21.7969 32.2111 85.7487)" fill="url(#paint10_radial_654_550)"/>
</g>
<defs>
<linearGradient id="paint0_linear_654_550" x1="67" y1="68" x2="68.676" y2="36.4386" gradientUnits="userSpaceOnUse">
<stop stop-color="#262626"/>
<stop offset="0.229167" stop-color="#2B2B2B"/>
<stop offset="0.416667" stop-color="#353535"/>
<stop offset="0.6875" stop-color="#555555"/>
<stop offset="0.90625" stop-color="#5B5B5B"/>
</linearGradient>
<linearGradient id="paint1_linear_654_550" x1="31.3004" y1="16.9754" x2="58.5628" y2="58.6961" gradientUnits="userSpaceOnUse">
<stop stop-color="#262626"/>
<stop offset="0.229167" stop-color="#353535"/>
<stop offset="0.416667" stop-color="#4E4E4E"/>
<stop offset="0.6875" stop-color="#616161"/>
<stop offset="0.90625" stop-color="#676767"/>
</linearGradient>
<linearGradient id="paint2_linear_654_550" x1="14.3271" y1="7.02254" x2="19.3847" y2="17.2213" gradientUnits="userSpaceOnUse">
<stop stop-color="#EFEFEF"/>
<stop offset="0.326816" stop-color="#F4F4F4"/>
<stop offset="0.530068" stop-color="#F7F7F7"/>
<stop offset="1" stop-color="white"/>
</linearGradient>
<linearGradient id="paint3_linear_654_550" x1="40.9997" y1="97.5381" x2="61.8569" y2="97.3063" gradientUnits="userSpaceOnUse">
<stop stop-color="#262626"/>
<stop offset="0.229167" stop-color="#353535"/>
<stop offset="0.416667" stop-color="#4E4E4E"/>
<stop offset="0.6875" stop-color="#616161"/>
<stop offset="0.90625" stop-color="#676767"/>
</linearGradient>
<linearGradient id="paint4_linear_654_550" x1="73.5597" y1="98.9286" x2="53.8267" y2="104.155" gradientUnits="userSpaceOnUse">
<stop stop-color="#262626"/>
<stop offset="0.229167" stop-color="#353535"/>
<stop offset="0.416667" stop-color="#4E4E4E"/>
<stop offset="0.6875" stop-color="#616161"/>
<stop offset="0.90625" stop-color="#676767"/>
</linearGradient>
<linearGradient id="paint5_linear_654_550" x1="41.9545" y1="69.5172" x2="42.2688" y2="80.9656" gradientUnits="userSpaceOnUse">
<stop/>
<stop offset="1" stop-opacity="0"/>
</linearGradient>
<linearGradient id="paint6_linear_654_550" x1="43.9056" y1="73.6431" x2="46.8815" y2="82.2928" gradientUnits="userSpaceOnUse">
<stop stop-color="#6E849B"/>
<stop offset="0.953822" stop-color="#8897AA" stop-opacity="0"/>
</linearGradient>
<linearGradient id="paint7_linear_654_550" x1="73.7998" y1="69.6405" x2="73.6256" y2="80.3794" gradientUnits="userSpaceOnUse">
<stop/>
<stop offset="1" stop-opacity="0"/>
</linearGradient>
<linearGradient id="paint8_linear_654_550" x1="74.9652" y1="73.9169" x2="77.0435" y2="82.8511" gradientUnits="userSpaceOnUse">
<stop stop-color="#6E849B"/>
<stop offset="0.953822" stop-color="#8897AA" stop-opacity="0"/>
</linearGradient>
<radialGradient id="paint9_radial_654_550" cx="0" cy="0" r="1" gradientUnits="userSpaceOnUse" gradientTransform="translate(83.4152 86.7487) rotate(90) scale(7.5)">
<stop stop-color="#D23757"/>
<stop offset="1" stop-color="#D23757" stop-opacity="0"/>
</radialGradient>
<radialGradient id="paint10_radial_654_550" cx="0" cy="0" r="1" gradientUnits="userSpaceOnUse" gradientTransform="translate(32.2111 85.7487) rotate(90) scale(7.5)">
<stop stop-color="#D23757"/>
<stop offset="1" stop-color="#D23757" stop-opacity="0"/>
</radialGradient>
</defs>
</svg>
