<svg width="17" height="17" viewBox="0 0 17 17" fill="none" xmlns="http://www.w3.org/2000/svg">
<path d="M16.3641 2.3194L14.9327 0.828342C14.785 0.674177 14.5906 0.596924 14.3966 0.596924C14.2027 0.596924 14.0087 0.673835 13.8609 0.828L12.7159 2.01893L15.2191 4.62572L16.3641 3.43513C16.66 3.1268 16.66 2.62671 16.3641 2.3194Z" fill="#262626"/>
<path d="M5.2837 9.75761L7.78722 12.3647L14.6834 5.18428L12.1798 2.57715L5.2837 9.75761Z" fill="#262626"/>
<path d="M4.74335 10.3154L4.20889 13.478L7.24687 12.9222L4.74335 10.3154Z" fill="#262626"/>
<path d="M11.6641 14.8874H2.22476V5.04069H8.88628L10.528 3.33154H1.64573C1.06278 3.33154 0.585999 3.8289 0.585999 4.43702V15.4914C0.585999 16.0995 1.06278 16.5969 1.64573 16.5969H12.2428C12.8257 16.5969 13.3025 16.0995 13.3025 15.4914V7.588L11.6641 9.29407V14.8874Z" fill="#262626"/>
</svg>
