<svg width="20" height="20" viewBox="0 0 20 20" fill="none" xmlns="http://www.w3.org/2000/svg">
<path d="M15.7324 11.2501H6.25C5.91848 11.2501 5.60054 11.1184 5.36612 10.884C5.1317 10.6496 5 10.3316 5 10.0001C5 9.66858 5.1317 9.35064 5.36612 9.11622C5.60054 8.8818 5.91848 8.7501 6.25 8.7501H15.7324L14.1162 7.13389C13.8829 6.89927 13.7521 6.58171 13.7526 6.25082C13.753 5.91994 13.8847 5.60274 14.1187 5.36877C14.3526 5.13479 14.6698 5.00315 15.0007 5.00269C15.3316 5.00223 15.6492 5.13299 15.8838 5.36631L19.6338 9.11631C19.7499 9.23235 19.842 9.37013 19.9048 9.52177C19.9677 9.67342 20 9.83595 20 10.0001C20 10.1642 19.9677 10.3268 19.9048 10.4784C19.842 10.6301 19.7499 10.7679 19.6338 10.8839L15.8838 14.6339C15.7678 14.7505 15.63 14.8431 15.4783 14.9063C15.3265 14.9695 15.1637 15.0022 14.9993 15.0024C14.8349 15.0027 14.672 14.9704 14.52 14.9076C14.3681 14.8448 14.23 14.7526 14.1137 14.6364C13.9975 14.5201 13.9053 14.382 13.8425 14.2301C13.7797 14.0781 13.7474 13.9153 13.7477 13.7508C13.7479 13.5864 13.7806 13.4236 13.8438 13.2718C13.9071 13.1201 13.9996 12.9823 14.1162 12.8663L15.7324 11.2501Z" fill="white"/>
<path d="M1.25 2.00941e-07H11.25C11.4142 -9.29127e-05 11.5768 0.0321757 11.7285 0.0949611C11.8802 0.157747 12.018 0.249817 12.1341 0.365909C12.2502 0.482001 12.3423 0.619837 12.405 0.771536C12.4678 0.923235 12.5001 1.08582 12.5 1.25V3.75C12.5 4.08152 12.3683 4.39946 12.1339 4.63388C11.8995 4.8683 11.5815 5 11.25 5C10.9185 5 10.6005 4.8683 10.3661 4.63388C10.1317 4.39946 10 4.08152 10 3.75V2.5H2.5V17.5H10V16.25C10 15.9185 10.1317 15.6005 10.3661 15.3661C10.6005 15.1317 10.9185 15 11.25 15C11.5815 15 11.8995 15.1317 12.1339 15.3661C12.3683 15.6005 12.5 15.9185 12.5 16.25V18.75C12.5001 18.9142 12.4678 19.0768 12.405 19.2285C12.3423 19.3802 12.2502 19.518 12.1341 19.6341C12.018 19.7502 11.8802 19.8423 11.7285 19.905C11.5768 19.9678 11.4142 20.0001 11.25 20H1.25C1.08582 20.0001 0.923235 19.9678 0.771536 19.905C0.619837 19.8423 0.482002 19.7502 0.36591 19.6341C0.249818 19.518 0.157747 19.3802 0.0949617 19.2285C0.0321763 19.0768 -9.19216e-05 18.9142 1.19209e-06 18.75V1.25C-9.19216e-05 1.08582 0.0321763 0.923235 0.0949617 0.771536C0.157747 0.619837 0.249818 0.482001 0.36591 0.365909C0.482002 0.249817 0.619837 0.157747 0.771536 0.0949611C0.923235 0.0321757 1.08582 -9.29127e-05 1.25 2.00941e-07V2.00941e-07Z" fill="white"/>
</svg>
