<svg width="14" height="14" viewBox="0 0 14 14" fill="none" xmlns="http://www.w3.org/2000/svg">
<path d="M11.0127 7.8749H4.375C4.14294 7.8749 3.92038 7.78271 3.75628 7.61862C3.59219 7.45452 3.5 7.23196 3.5 6.9999C3.5 6.76784 3.59219 6.54528 3.75628 6.38118C3.92038 6.21709 4.14294 6.1249 4.375 6.1249H11.0127L9.88135 4.99355C9.71802 4.82932 9.62649 4.60702 9.62681 4.3754C9.62713 4.14379 9.71929 3.92174 9.88307 3.75797C10.0468 3.59419 10.2689 3.50203 10.5005 3.50171C10.7321 3.50139 10.9544 3.59292 11.1187 3.75625L13.7437 6.38125C13.8249 6.46247 13.8894 6.55892 13.9334 6.66507C13.9774 6.77122 14 6.885 14 6.9999C14 7.1148 13.9774 7.22858 13.9334 7.33473C13.8894 7.44088 13.8249 7.53733 13.7437 7.61855L11.1187 10.2436C11.0375 10.3252 10.941 10.39 10.8348 10.4342C10.7285 10.4785 10.6146 10.5014 10.4995 10.5015C10.3844 10.5017 10.2704 10.4791 10.164 10.4352C10.0577 10.3912 9.96101 10.3267 9.87962 10.2453C9.79823 10.1639 9.73371 10.0672 9.68973 9.96087C9.64576 9.8545 9.62321 9.7405 9.62337 9.6254C9.62353 9.5103 9.6464 9.39637 9.69067 9.29012C9.73493 9.18387 9.79973 9.08741 9.88135 9.00625L11.0127 7.8749Z" fill="#262626"/>
<path d="M0.874999 1.40658e-07H7.875C7.98992 -6.50389e-05 8.10374 0.022523 8.20993 0.0664728C8.31611 0.110423 8.4126 0.174872 8.49386 0.256136C8.57513 0.337401 8.63958 0.433886 8.68353 0.540075C8.72748 0.646264 8.75007 0.760075 8.75 0.875V2.625C8.75 2.85706 8.65781 3.07962 8.49372 3.24372C8.32962 3.40781 8.10706 3.5 7.875 3.5C7.64294 3.5 7.42038 3.40781 7.25628 3.24372C7.09219 3.07962 7 2.85706 7 2.625V1.75H1.75V12.25H7V11.375C7 11.1429 7.09219 10.9204 7.25628 10.7563C7.42038 10.5922 7.64294 10.5 7.875 10.5C8.10706 10.5 8.32962 10.5922 8.49372 10.7563C8.65781 10.9204 8.75 11.1429 8.75 11.375V13.125C8.75007 13.2399 8.72748 13.3537 8.68353 13.4599C8.63958 13.5661 8.57513 13.6626 8.49386 13.7439C8.4126 13.8251 8.31611 13.8896 8.20993 13.9335C8.10374 13.9775 7.98992 14.0001 7.875 14H0.874999C0.760074 14.0001 0.646263 13.9775 0.540073 13.9335C0.433884 13.8896 0.337399 13.8251 0.256135 13.7439C0.174871 13.6626 0.110421 13.5661 0.0664709 13.4599C0.0225211 13.3537 -6.66697e-05 13.2399 -1.49012e-06 13.125V0.875C-6.66697e-05 0.760075 0.0225211 0.646264 0.0664709 0.540075C0.110421 0.433886 0.174871 0.337401 0.256135 0.256136C0.337399 0.174872 0.433884 0.110423 0.540073 0.0664728C0.646263 0.022523 0.760074 -6.50389e-05 0.874999 1.40658e-07V1.40658e-07Z" fill="#262626"/>
</svg>
