<svg width="16" height="16" viewBox="0 0 16 16" fill="none" xmlns="http://www.w3.org/2000/svg">
<path d="M3.41407 9.00013H11C11.2652 9.00013 11.5196 8.89477 11.7071 8.70724C11.8946 8.5197 12 8.26535 12 8.00013C12 7.73491 11.8946 7.48056 11.7071 7.29302C11.5196 7.10549 11.2652 7.00013 11 7.00013H3.41407L4.70703 5.70716C4.89369 5.51947 4.9983 5.26541 4.99793 5.00071C4.99756 4.736 4.89224 4.48224 4.70507 4.29506C4.51789 4.10788 4.26413 4.00257 3.99942 4.0022C3.73471 4.00183 3.48066 4.10644 3.29297 4.2931L0.292965 7.2931C0.200087 7.38593 0.126409 7.49615 0.0761409 7.61747C0.025873 7.73878 0 7.86881 0 8.00013C0 8.13145 0.025873 8.26148 0.0761409 8.38279C0.126409 8.50411 0.200087 8.61433 0.292965 8.70716L3.29297 11.7072C3.38572 11.8004 3.49597 11.8745 3.61739 11.9251C3.73882 11.9757 3.86903 12.0018 4.00057 12.002C4.13212 12.0022 4.2624 11.9764 4.38397 11.9262C4.50553 11.8759 4.61599 11.8021 4.709 11.7091C4.80202 11.6161 4.87576 11.5057 4.92602 11.3841C4.97627 11.2625 5.00205 11.1322 5.00187 11.0007C5.00168 10.8692 4.97555 10.7389 4.92495 10.6175C4.87436 10.4961 4.80031 10.3859 4.70703 10.2931L3.41407 9.00013Z" fill="#262626"/>
<path d="M6.99972 0.5H7H15V0L15.0003 0.5C15.0659 0.499963 15.1309 0.512863 15.1916 0.537963C15.2522 0.563063 15.3073 0.59987 15.3537 0.646281C15.4001 0.692692 15.4369 0.747795 15.462 0.808439C15.4871 0.869084 15.5 0.934082 15.5 0.999717V1V15V15.0003C15.5 15.0659 15.4871 15.1309 15.462 15.1916C15.4369 15.2522 15.4001 15.3073 15.3537 15.3537C15.3073 15.4001 15.2522 15.4369 15.1916 15.462C15.1309 15.4871 15.0659 15.5 15.0003 15.5H15H7L6.99972 15.5C6.93408 15.5 6.86908 15.4871 6.80844 15.462C6.7478 15.4369 6.69269 15.4001 6.64628 15.3537C6.59987 15.3073 6.56306 15.2522 6.53796 15.1916C6.51286 15.1309 6.49996 15.0659 6.5 15.0003V15V13C6.5 12.8674 6.55268 12.7402 6.64645 12.6464C6.74022 12.5527 6.86739 12.5 7 12.5C7.13261 12.5 7.25979 12.5527 7.35355 12.6464C7.44732 12.7402 7.5 12.8674 7.5 13V14V14.5H8H14H14.5V14V2V1.5H14H8H7.5V2V3C7.5 3.13261 7.44732 3.25979 7.35355 3.35355C7.25979 3.44732 7.13261 3.5 7 3.5C6.86739 3.5 6.74021 3.44732 6.64645 3.35355C6.55268 3.25979 6.5 3.13261 6.5 3L6.5 1L6.5 0.999717C6.49996 0.934083 6.51286 0.869085 6.53796 0.808439C6.56306 0.747794 6.59987 0.692691 6.64628 0.646281C6.69269 0.59987 6.74779 0.563063 6.80844 0.537963C6.86908 0.512863 6.93408 0.499963 6.99972 0.5Z" fill="#262626" stroke="black"/>
</svg>
