<svg width="28" height="28" viewBox="0 0 28 28" fill="none" xmlns="http://www.w3.org/2000/svg">
<path d="M10.5 10.5C10.5 8.51667 12.0167 7 14 7C15.9833 7 17.5 8.51667 17.5 10.5C17.5 12.4833 15.9833 14 14 14C12.0167 14 10.5 12.4833 10.5 10.5ZM14 16.3333C8.63333 16.3333 7 20.1833 7 20.1833V22.1667H21V20.1833C21 20.1833 19.3667 16.3333 14 16.3333Z" fill="white"/>
<path d="M21.5832 12.8333C23.194 12.8333 24.4998 11.5275 24.4998 9.91667C24.4998 8.30584 23.194 7 21.5832 7C19.9723 7 18.6665 8.30584 18.6665 9.91667C18.6665 11.5275 19.9723 12.8333 21.5832 12.8333Z" fill="black"/>
<path d="M21.5833 15.1666C20.1833 15.1666 19.1333 15.5166 18.3167 16.1C21 17.3833 22.05 19.6 22.05 19.8333V19.95H26.8333V18.4333C26.8333 18.3166 25.55 15.1666 21.5833 15.1666Z" fill="black"/>
<path d="M21.5832 12.8333C23.194 12.8333 24.4998 11.5275 24.4998 9.91667C24.4998 8.30584 23.194 7 21.5832 7C19.9723 7 18.6665 8.30584 18.6665 9.91667C18.6665 11.5275 19.9723 12.8333 21.5832 12.8333Z" fill="white"/>
<path d="M21.5833 15.1666C20.1833 15.1666 19.1333 15.5166 18.3167 16.1C21 17.3833 22.05 19.6 22.05 19.8333V19.95H26.8333V18.4333C26.8333 18.3166 25.55 15.1666 21.5833 15.1666Z" fill="white"/>
<path d="M6.41667 12.8333C8.0275 12.8333 9.33333 11.5275 9.33333 9.91667C9.33333 8.30584 8.0275 7 6.41667 7C4.80584 7 3.5 8.30584 3.5 9.91667C3.5 11.5275 4.80584 12.8333 6.41667 12.8333Z" fill="white"/>
<path d="M6.41675 15.1666C7.81675 15.1666 8.86675 15.5166 9.68341 16.1C7.00008 17.3833 5.95008 19.6 5.95008 19.8333V19.95H1.16675V18.4333C1.16675 18.3166 2.45008 15.1666 6.41675 15.1666Z" fill="white"/>
</svg>
