<svg width="558" height="450" viewBox="0 0 558 450" fill="none" xmlns="http://www.w3.org/2000/svg">
<path fill-rule="evenodd" clip-rule="evenodd" d="M540.364 42.0129C539.564 82.8019 427.794 125.782 286.875 138.87C145.957 151.958 28.1829 130.296 19.8852 90.3522C19.8688 91.1873 19.8989 92.0215 19.9763 92.8545C23.8324 134.373 143.534 157.204 287.338 143.848C431.141 130.493 544.591 86.008 540.735 44.4892C540.658 43.6562 540.534 42.8307 540.364 42.0129Z" fill="#262626"/>
<g filter="url(#filter0_d_300_189)">
<path d="M310.153 212.857L309.057 213.086C308.674 212.294 308.178 210.436 307.568 207.512C306.937 204.484 306.671 196.15 306.769 182.509C306.868 168.869 306.721 161.109 306.329 159.229C305.654 155.992 303.452 152.747 299.723 149.492L297.922 147.907L297.654 145.838C302.966 143.096 311.835 140.43 324.262 137.84C326.081 140.294 327.502 143.974 328.525 148.882C329.281 146.763 331.161 143.756 334.163 139.862C337.164 135.967 340.597 133.617 344.461 132.812C350.099 131.637 353.942 135.957 355.988 145.772C355.596 146.508 355.04 147.495 354.318 148.736C353.678 149.85 352.186 151.577 349.841 153.918C347.6 156.238 345.271 157.867 342.852 158.807C342.747 158.829 341.566 157.604 339.307 155.133C337.049 152.662 335.502 151.514 334.666 151.688C332.252 153.172 330.281 155.217 328.754 157.823C328.456 180.44 328.972 194.933 330.299 201.303C330.778 203.6 331.168 205.208 331.468 206.126C328.118 208.35 321.013 210.594 310.153 212.857Z" fill="url(#paint0_linear_300_189)"/>
<path d="M309.057 213.086L308.607 213.304L308.777 213.655L309.159 213.575L309.057 213.086ZM306.769 182.509L306.269 182.506L306.769 182.509ZM299.723 149.492L299.393 149.868L299.394 149.869L299.723 149.492ZM297.922 147.907L297.426 147.971L297.45 148.158L297.591 148.282L297.922 147.907ZM297.654 145.838L297.424 145.393L297.113 145.554L297.158 145.902L297.654 145.838ZM324.262 137.84L324.663 137.542L324.473 137.285L324.16 137.35L324.262 137.84ZM328.525 148.882L328.035 148.984L328.398 150.724L328.996 149.05L328.525 148.882ZM355.988 145.772L356.429 146.007L356.514 145.848L356.477 145.67L355.988 145.772ZM354.318 148.736L353.885 148.484L353.884 148.487L354.318 148.736ZM349.841 153.918L349.488 153.564L349.481 153.571L349.841 153.918ZM342.852 158.807L342.954 159.297L342.994 159.288L343.033 159.273L342.852 158.807ZM339.307 155.133L339.676 154.796L339.676 154.796L339.307 155.133ZM334.666 151.688L334.564 151.198L334.479 151.216L334.405 151.262L334.666 151.688ZM328.754 157.823L328.323 157.571L328.256 157.685L328.254 157.817L328.754 157.823ZM331.468 206.126L331.745 206.543L332.062 206.332L331.943 205.971L331.468 206.126ZM310.051 212.368L308.955 212.596L309.159 213.575L310.255 213.347L310.051 212.368ZM309.507 212.868C309.156 212.143 308.67 210.35 308.058 207.41L307.079 207.614C307.685 210.522 308.192 212.446 308.607 213.304L309.507 212.868ZM308.058 207.41C307.752 205.945 307.528 203.146 307.395 198.975C307.262 194.817 307.22 189.33 307.269 182.513L306.269 182.506C306.22 189.329 306.262 194.83 306.395 199.006C306.528 203.17 306.753 206.052 307.079 207.614L308.058 207.41ZM307.269 182.513C307.318 175.691 307.306 170.336 307.233 166.45C307.16 162.588 307.026 160.123 306.819 159.127L305.84 159.331C306.024 160.215 306.159 162.57 306.233 166.468C306.306 170.342 306.318 175.687 306.269 182.506L307.269 182.513ZM306.819 159.127C306.113 155.742 303.824 152.408 300.052 149.116L299.394 149.869C303.08 153.086 305.196 156.242 305.84 159.331L306.819 159.127ZM300.053 149.117L298.252 147.531L297.591 148.282L299.393 149.868L300.053 149.117ZM298.417 147.842L298.15 145.774L297.158 145.902L297.426 147.971L298.417 147.842ZM297.883 146.282C303.131 143.573 311.944 140.918 324.364 138.329L324.16 137.35C311.727 139.942 302.801 142.619 297.424 145.393L297.883 146.282ZM323.86 138.137C325.617 140.507 327.019 144.107 328.035 148.984L329.014 148.78C327.985 143.841 326.544 140.08 324.663 137.542L323.86 138.137ZM328.996 149.05C329.724 147.011 331.56 144.057 334.559 140.167L333.767 139.557C330.761 143.455 328.839 146.515 328.054 148.714L328.996 149.05ZM334.559 140.167C337.506 136.343 340.842 134.077 344.563 133.301L344.359 132.323C340.351 133.158 336.823 135.592 333.767 139.557L334.559 140.167ZM344.563 133.301C347.206 132.75 349.395 133.476 351.198 135.503C353.033 137.566 354.482 140.997 355.498 145.874L356.477 145.67C355.448 140.732 353.953 137.095 351.945 134.838C349.906 132.545 347.354 131.698 344.359 132.323L344.563 133.301ZM355.547 145.537C355.159 146.265 354.606 147.246 353.885 148.484L354.75 148.987C355.473 147.745 356.033 146.751 356.429 146.007L355.547 145.537ZM353.884 148.487C353.282 149.536 351.835 151.22 349.488 153.564L350.194 154.272C352.536 151.934 354.074 150.164 354.751 148.985L353.884 148.487ZM349.481 153.571C347.279 155.85 345.008 157.433 342.67 158.341L343.033 159.273C345.533 158.302 347.922 156.625 350.201 154.266L349.481 153.571ZM342.75 158.318C342.872 158.292 342.967 158.322 342.994 158.33C343.031 158.343 343.056 158.356 343.064 158.361C343.081 158.37 343.084 158.374 343.068 158.362C343.04 158.34 342.99 158.297 342.913 158.225C342.762 158.083 342.541 157.863 342.247 157.558C341.661 156.951 340.805 156.031 339.676 154.796L338.938 155.471C340.068 156.707 340.932 157.635 341.527 158.252C341.824 158.56 342.059 158.796 342.23 158.955C342.314 159.034 342.39 159.102 342.455 159.152C342.487 159.176 342.528 159.207 342.575 159.233C342.598 159.246 342.635 159.265 342.683 159.281C342.721 159.293 342.824 159.324 342.954 159.297L342.75 158.318ZM339.676 154.796C338.539 153.551 337.562 152.619 336.751 152.017C336.346 151.716 335.966 151.486 335.616 151.342C335.27 151.201 334.909 151.127 334.564 151.198L334.768 152.177C334.842 152.162 334.988 152.166 335.237 152.268C335.482 152.368 335.787 152.547 336.155 152.82C336.891 153.366 337.817 154.244 338.938 155.471L339.676 154.796ZM334.405 151.262C331.916 152.792 329.888 154.898 328.323 157.571L329.186 158.076C330.674 155.536 332.588 153.552 334.928 152.114L334.405 151.262ZM328.254 157.817C327.957 180.418 328.469 194.971 329.81 201.405L330.789 201.201C329.475 194.896 328.956 180.462 329.254 157.83L328.254 157.817ZM329.81 201.405C330.289 203.702 330.683 205.334 330.993 206.282L331.943 205.971C331.653 205.082 331.268 203.499 330.789 201.201L329.81 201.405ZM331.192 205.709C329.576 206.782 327.015 207.882 323.476 209C319.945 210.115 315.472 211.238 310.051 212.368L310.255 213.347C315.695 212.213 320.203 211.082 323.777 209.953C327.343 208.827 330.011 207.694 331.745 206.543L331.192 205.709Z" fill="url(#paint1_linear_300_189)"/>
</g>
<g filter="url(#filter1_d_300_189)">
<path d="M378.988 197.991L377.887 198.196C377.522 197.396 377.067 195.527 376.522 192.591C375.957 189.549 375.874 181.211 376.273 167.576C376.672 153.941 376.697 146.18 376.346 144.292C375.743 141.041 373.613 137.748 369.956 134.412L368.19 132.787L367.968 130.713C373.339 128.089 382.265 125.619 394.745 123.303C396.51 125.796 397.85 129.507 398.764 134.436C399.568 132.334 401.513 129.37 404.6 125.542C407.686 121.715 411.17 119.441 415.05 118.721C420.714 117.67 424.46 122.074 426.289 131.932C425.882 132.659 425.303 133.634 424.554 134.858C423.89 135.957 422.36 137.652 419.964 139.941C417.673 142.21 415.308 143.788 412.869 144.675C412.764 144.694 411.61 143.444 409.407 140.923C407.203 138.403 405.682 137.221 404.843 137.377C402.396 138.807 400.381 140.808 398.797 143.381C398.001 165.985 398.197 180.486 399.384 186.884C399.812 189.191 400.166 190.807 400.446 191.731C397.048 193.881 389.895 195.967 378.988 197.991Z" fill="url(#paint2_linear_300_189)"/>
<path d="M377.887 198.196L377.432 198.403L377.595 198.759L377.978 198.687L377.887 198.196ZM376.273 167.576L375.774 167.562L376.273 167.576ZM369.956 134.412L369.618 134.78L369.619 134.782L369.956 134.412ZM368.19 132.787L367.693 132.84L367.713 133.028L367.852 133.155L368.19 132.787ZM367.968 130.713L367.749 130.264L367.434 130.417L367.471 130.766L367.968 130.713ZM394.745 123.303L395.154 123.014L394.969 122.753L394.654 122.811L394.745 123.303ZM398.764 134.436L398.273 134.528L398.597 136.275L399.231 134.615L398.764 134.436ZM426.289 131.932L426.726 132.177L426.814 132.019L426.781 131.841L426.289 131.932ZM424.554 134.858L424.128 134.597L424.126 134.599L424.554 134.858ZM419.964 139.941L419.619 139.579L419.613 139.585L419.964 139.941ZM412.869 144.675L412.96 145.166L413.001 145.159L413.04 145.145L412.869 144.675ZM409.407 140.923L409.783 140.594L409.783 140.594L409.407 140.923ZM404.843 137.377L404.752 136.885L404.666 136.901L404.59 136.945L404.843 137.377ZM398.797 143.381L398.371 143.118L398.302 143.231L398.297 143.363L398.797 143.381ZM400.446 191.731L400.714 192.154L401.035 191.95L400.925 191.586L400.446 191.731ZM378.897 197.5L377.796 197.704L377.978 198.687L379.08 198.483L378.897 197.5ZM378.342 197.988C378.007 197.255 377.561 195.452 377.013 192.5L376.03 192.682C376.572 195.603 377.036 197.536 377.432 198.403L378.342 197.988ZM377.013 192.5C376.74 191.028 376.578 188.224 376.536 184.051C376.495 179.891 376.574 174.405 376.773 167.591L375.774 167.562C375.574 174.382 375.495 179.883 375.536 184.061C375.578 188.226 375.739 191.113 376.03 192.682L377.013 192.5ZM376.773 167.591C376.973 160.772 377.079 155.418 377.091 151.531C377.103 147.668 377.024 145.201 376.838 144.201L375.855 144.383C376.019 145.271 376.103 147.629 376.091 151.527C376.079 155.402 375.973 160.746 375.774 167.562L376.773 167.591ZM376.838 144.201C376.207 140.801 373.992 137.417 370.293 134.043L369.619 134.782C373.234 138.078 375.279 141.281 375.855 144.383L376.838 144.201ZM370.295 134.044L368.529 132.419L367.852 133.155L369.618 134.78L370.295 134.044ZM368.687 132.734L368.465 130.66L367.471 130.766L367.693 132.84L368.687 132.734ZM368.187 131.162C373.494 128.57 382.363 126.109 394.837 123.794L394.654 122.811C382.168 125.128 373.185 127.608 367.749 130.264L368.187 131.162ZM394.337 123.592C396.042 126 397.364 129.629 398.273 134.528L399.256 134.345C398.335 129.385 396.978 125.592 395.154 123.014L394.337 123.592ZM399.231 134.615C400.004 132.592 401.905 129.68 404.989 125.856L404.21 125.228C401.12 129.06 399.131 132.077 398.297 134.258L399.231 134.615ZM404.989 125.856C408.02 122.098 411.405 119.906 415.142 119.213L414.959 118.229C410.935 118.976 407.353 121.332 404.21 125.228L404.989 125.856ZM415.142 119.213C417.796 118.72 419.969 119.493 421.727 121.56C423.516 123.662 424.889 127.125 425.798 132.023L426.781 131.841C425.861 126.881 424.446 123.213 422.488 120.912C420.5 118.574 417.968 117.671 414.959 118.229L415.142 119.213ZM425.853 131.688C425.45 132.406 424.876 133.375 424.128 134.597L424.981 135.119C425.731 133.893 426.313 132.911 426.726 132.177L425.853 131.688ZM424.126 134.599C423.501 135.635 422.018 137.287 419.619 139.579L420.31 140.302C422.703 138.016 424.28 136.28 424.982 135.116L424.126 134.599ZM419.613 139.585C417.361 141.816 415.055 143.348 412.698 144.205L413.04 145.145C415.561 144.228 417.986 142.604 420.316 140.296L419.613 139.585ZM412.778 144.183C412.901 144.16 412.995 144.192 413.022 144.201C413.059 144.214 413.083 144.228 413.091 144.233C413.108 144.243 413.111 144.247 413.096 144.234C413.068 144.212 413.019 144.167 412.943 144.094C412.795 143.949 412.579 143.723 412.292 143.412C411.72 142.792 410.884 141.854 409.783 140.594L409.03 141.253C410.133 142.514 410.976 143.46 411.557 144.091C411.848 144.405 412.077 144.646 412.244 144.809C412.326 144.889 412.402 144.959 412.466 145.011C412.496 145.035 412.537 145.067 412.583 145.094C412.606 145.107 412.643 145.128 412.69 145.145C412.728 145.158 412.831 145.19 412.96 145.166L412.778 144.183ZM409.783 140.594C408.673 139.325 407.718 138.372 406.92 137.752C406.521 137.442 406.147 137.203 405.799 137.052C405.457 136.903 405.097 136.821 404.752 136.885L404.934 137.868C405.008 137.855 405.153 137.862 405.401 137.969C405.643 138.075 405.944 138.26 406.306 138.541C407.03 139.104 407.937 140.002 409.03 141.253L409.783 140.594ZM404.59 136.945C402.068 138.42 399.995 140.481 398.371 143.118L399.223 143.643C400.766 141.136 402.724 139.195 405.095 137.808L404.59 136.945ZM398.297 143.363C397.502 165.952 397.693 180.513 398.892 186.975L399.876 186.792C398.701 180.46 398.5 166.018 399.296 143.398L398.297 143.363ZM398.892 186.975C399.321 189.282 399.679 190.922 399.968 191.876L400.925 191.586C400.654 190.691 400.304 189.1 399.876 186.792L398.892 186.975ZM400.179 191.309C398.54 192.345 395.956 193.389 392.393 194.428C388.839 195.465 384.341 196.49 378.897 197.5L379.08 198.483C384.543 197.469 389.075 196.438 392.673 195.388C396.263 194.341 398.955 193.266 400.714 192.154L400.179 191.309Z" fill="url(#paint3_linear_300_189)"/>
</g>
<g filter="url(#filter2_d_300_189)">
<path d="M478.181 188.921C475.567 192.101 474.597 194.646 475.268 196.558C475.94 198.47 477.333 199.055 479.446 198.312C481.66 197.534 483.754 195.611 485.729 192.543C487.739 189.575 488.836 185.459 489.02 180.193C484.508 182.796 480.895 185.706 478.181 188.921ZM465.418 175.768C456.965 178.739 451.111 175.596 447.858 166.337C447.08 164.123 445.84 157.38 444.139 146.106C442.438 134.832 440.35 125.673 437.874 118.629C437.344 117.119 436.647 115.781 435.785 114.614C440.477 110.591 447.552 106.917 457.012 103.593C458.01 104.825 459.11 107.152 460.313 110.573C461.515 113.995 462.902 121.478 464.472 133.024C466.042 144.57 467.376 151.903 468.472 155.022C469.568 158.142 471.425 159.242 474.041 158.322C477.161 157.226 480.386 154.34 483.718 149.664C482.134 143.55 478.648 127.194 473.257 100.597C476.284 97.9503 482.376 95.0177 491.534 91.7994L494.402 90.7914C495.143 99.0108 497.101 110.533 500.276 125.359C503.451 140.185 505.458 150.56 506.296 156.484C508.073 168.296 507.314 178.682 504.018 187.642C500.859 196.666 494.7 202.788 485.542 206.006C481.92 207.28 478.263 207.491 474.572 206.64C470.981 205.753 468.656 203.801 467.595 200.782C466.18 196.756 467.355 192.217 471.119 187.163C474.882 182.109 480.622 177.209 488.338 172.462C487.688 167.716 486.889 163.191 485.942 158.889C479.807 167.489 472.965 173.116 465.418 175.768Z" fill="url(#paint4_linear_300_189)"/>
<path d="M478.181 188.921L477.799 188.598L477.795 188.603L478.181 188.921ZM485.729 192.543L485.315 192.263L485.308 192.272L485.729 192.543ZM489.02 180.193L489.52 180.211L489.551 179.309L488.77 179.76L489.02 180.193ZM444.139 146.106L444.634 146.031L444.139 146.106ZM435.785 114.614L435.46 114.235L435.107 114.538L435.383 114.912L435.785 114.614ZM457.012 103.593L457.4 103.278L457.178 103.004L456.846 103.121L457.012 103.593ZM464.472 133.024L464.967 132.957L464.472 133.024ZM483.718 149.664L484.125 149.954L484.26 149.765L484.202 149.539L483.718 149.664ZM473.257 100.597L472.928 100.221L472.709 100.412L472.767 100.696L473.257 100.597ZM494.402 90.7914L494.9 90.7465L494.842 90.1067L494.236 90.3197L494.402 90.7914ZM500.276 125.359L500.765 125.255L500.276 125.359ZM506.296 156.484L505.801 156.554L505.802 156.558L506.296 156.484ZM504.018 187.642L503.549 187.469L503.546 187.476L504.018 187.642ZM474.572 206.64L474.452 207.125L474.459 207.127L474.572 206.64ZM471.119 187.163L471.52 187.462L471.52 187.462L471.119 187.163ZM488.338 172.462L488.6 172.888L488.878 172.717L488.834 172.394L488.338 172.462ZM485.942 158.889L486.431 158.781L486.189 157.682L485.535 158.598L485.942 158.889ZM477.795 188.603C476.469 190.216 475.537 191.695 475.025 193.037C474.512 194.382 474.41 195.623 474.797 196.724L475.74 196.393C475.455 195.582 475.502 194.594 475.96 193.393C476.419 192.19 477.279 190.805 478.567 189.238L477.795 188.603ZM474.797 196.724C475.163 197.766 475.757 198.528 476.623 198.892C477.478 199.251 478.494 199.177 479.612 198.784L479.281 197.841C478.286 198.19 477.548 198.196 477.01 197.97C476.485 197.749 476.046 197.263 475.74 196.393L474.797 196.724ZM479.612 198.784C481.975 197.954 484.146 195.926 486.149 192.814L485.308 192.272C483.363 195.296 481.346 197.115 479.281 197.841L479.612 198.784ZM486.143 192.823C488.225 189.75 489.334 185.529 489.52 180.211L488.521 180.176C488.338 185.389 487.253 189.401 485.315 192.263L486.143 192.823ZM488.77 179.76C484.22 182.386 480.558 185.33 477.799 188.598L478.563 189.243C481.232 186.082 484.797 183.207 489.27 180.626L488.77 179.76ZM465.252 175.297C461.11 176.753 457.689 176.683 454.925 175.198C452.15 173.708 449.934 170.738 448.329 166.172L447.386 166.503C449.035 171.195 451.372 174.426 454.451 176.079C457.541 177.739 461.273 177.755 465.584 176.24L465.252 175.297ZM448.329 166.172C447.955 165.107 447.457 162.906 446.836 159.529C446.218 156.164 445.484 151.666 444.634 146.031L443.645 146.18C444.496 151.82 445.232 156.33 445.853 159.709C446.471 163.076 446.982 165.353 447.386 166.503L448.329 166.172ZM444.634 146.031C442.93 134.741 440.836 125.548 438.346 118.463L437.403 118.795C439.864 125.798 441.946 134.923 443.645 146.18L444.634 146.031ZM438.346 118.463C437.801 116.911 437.082 115.528 436.187 114.317L435.383 114.912C436.213 116.034 436.887 117.327 437.403 118.795L438.346 118.463ZM436.111 114.994C440.735 111.028 447.745 107.38 457.177 104.065L456.846 103.121C447.36 106.455 440.218 110.154 435.46 114.235L436.111 114.994ZM456.623 103.908C457.562 105.067 458.639 107.32 459.841 110.739L460.784 110.407C459.581 106.984 458.458 104.583 457.4 103.278L456.623 103.908ZM459.841 110.739C461.024 114.104 462.405 121.535 463.977 133.092L464.967 132.957C463.399 121.422 462.007 113.886 460.784 110.407L459.841 110.739ZM463.977 133.092C465.545 144.623 466.884 152.011 468 155.188L468.944 154.857C467.868 151.795 466.54 144.517 464.967 132.957L463.977 133.092ZM468 155.188C468.568 156.802 469.361 157.983 470.432 158.617C471.522 159.263 472.802 159.288 474.207 158.794L473.876 157.851C472.664 158.277 471.708 158.211 470.942 157.757C470.156 157.291 469.473 156.362 468.944 154.857L468 155.188ZM474.207 158.794C477.473 157.647 480.773 154.659 484.125 149.954L483.311 149.374C480 154.021 476.849 156.806 473.876 157.851L474.207 158.794ZM484.202 149.539C482.623 143.441 479.139 127.101 473.747 100.498L472.767 100.696C478.156 127.288 481.646 143.659 483.234 149.79L484.202 149.539ZM473.586 100.973C476.533 98.3968 482.541 95.49 491.7 92.2711L491.368 91.3276C482.212 94.5455 476.035 97.5038 472.928 100.221L473.586 100.973ZM491.7 92.2711L494.568 91.2631L494.236 90.3197L491.368 91.3276L491.7 92.2711ZM493.904 90.8363C494.647 99.0859 496.61 110.632 499.787 125.464L500.765 125.255C497.591 110.435 495.638 98.9357 494.9 90.7465L493.904 90.8363ZM499.787 125.464C502.962 140.29 504.966 150.65 505.801 156.554L506.791 156.414C505.95 150.47 503.94 140.08 500.765 125.255L499.787 125.464ZM505.802 156.558C507.57 168.308 506.809 178.606 503.549 187.469L504.488 187.814C507.819 178.758 508.577 168.284 506.791 156.409L505.802 156.558ZM503.546 187.476C500.438 196.355 494.393 202.366 485.377 205.535L485.708 206.478C495.006 203.21 501.279 196.978 504.49 187.807L503.546 187.476ZM485.377 205.535C481.842 206.777 478.281 206.982 474.684 206.153L474.459 207.127C478.244 208 481.997 207.782 485.708 206.478L485.377 205.535ZM474.692 206.154C471.235 205.301 469.062 203.449 468.066 200.616L467.123 200.948C468.249 204.152 470.728 206.206 474.452 207.125L474.692 206.154ZM468.066 200.616C466.73 196.813 467.805 192.45 471.52 187.462L470.718 186.864C466.905 191.984 465.63 196.7 467.123 200.948L468.066 200.616ZM471.52 187.462C475.233 182.476 480.917 177.615 488.6 172.888L488.076 172.036C480.328 176.803 474.532 181.743 470.718 186.864L471.52 187.462ZM488.834 172.394C488.181 167.636 487.381 163.098 486.431 158.781L485.454 158.996C486.398 163.285 487.194 167.796 487.843 172.53L488.834 172.394ZM485.535 158.598C479.441 167.142 472.676 172.688 465.252 175.297L465.584 176.24C473.255 173.544 480.173 167.837 486.349 159.179L485.535 158.598Z" fill="url(#paint5_linear_300_189)"/>
</g>
<g filter="url(#filter3_d_300_189)">
<path d="M105.674 188.57C104.831 195.237 101.18 200.313 94.7185 203.797C88.3633 207.295 81.4289 208.569 73.9153 207.62C66.4017 206.67 60.6231 204.328 56.5795 200.591C52.6418 196.868 50.8267 193.79 51.1342 191.356C51.3214 189.874 53.4742 187.727 57.5926 184.915C61.7243 181.996 65.1069 180.327 67.7403 179.907C72.5368 184.491 76.0935 191.23 78.4103 200.124C82.3659 200.301 84.5577 198.697 84.9855 195.31C85.6006 190.442 82.1837 183.022 74.735 173.05C67.2996 162.972 63.9162 155.287 64.5847 149.996C65.2532 144.704 68.1491 140.931 73.2722 138.675C78.4087 136.314 84.3105 135.554 90.9775 136.397C97.7503 137.252 102.676 139.111 105.755 141.973C108.847 144.729 110.133 148.171 109.611 152.298C109.103 156.319 105.167 161.52 97.8024 167.901C98.4495 168.735 99.275 169.861 100.279 171.278C101.296 172.589 102.543 175.058 104.02 178.685C105.497 182.312 106.048 185.607 105.674 188.57ZM93.5834 161.723C98.5094 158.475 101.206 154.999 101.674 151.295C102.142 147.591 99.8365 145.418 94.7569 144.777C92.3229 144.469 90.2454 144.744 88.5243 145.602C86.8166 146.354 85.8825 147.365 85.7221 148.635C85.4279 150.963 87.3416 154.537 91.4631 159.359L93.5834 161.723Z" fill="url(#paint6_linear_300_189)"/>
<path d="M94.7185 203.797L94.4812 203.357L94.4774 203.359L94.7185 203.797ZM56.5795 200.591L56.236 200.955L56.2402 200.959L56.5795 200.591ZM57.5926 184.915L57.8746 185.328L57.881 185.323L57.5926 184.915ZM67.7403 179.907L68.0857 179.546L67.9064 179.374L67.6615 179.413L67.7403 179.907ZM78.4103 200.124L77.9264 200.25L78.0194 200.607L78.3879 200.624L78.4103 200.124ZM74.735 173.05L74.3326 173.347L74.3344 173.349L74.735 173.05ZM73.2722 138.675L73.4737 139.133L73.4811 139.13L73.2722 138.675ZM105.755 141.973L105.415 142.339L105.422 142.346L105.755 141.973ZM97.8024 167.901L97.475 167.523L97.117 167.833L97.4073 168.207L97.8024 167.901ZM100.279 171.278L99.8706 171.567L99.8768 171.576L99.8835 171.584L100.279 171.278ZM104.02 178.685L104.483 178.497L104.02 178.685ZM93.5834 161.723L93.2112 162.057L93.4989 162.378L93.8587 162.141L93.5834 161.723ZM88.5243 145.602L88.7258 146.059L88.7367 146.055L88.7473 146.049L88.5243 145.602ZM91.4631 159.359L91.0829 159.684L91.0908 159.693L91.4631 159.359ZM105.177 188.508C104.357 194.998 100.815 199.941 94.4812 203.357L94.9558 204.237C101.544 200.685 105.305 195.477 106.17 188.633L105.177 188.508ZM94.4774 203.359C88.219 206.804 81.3916 208.06 73.9779 207.124L73.8526 208.116C81.4661 209.078 88.5075 207.786 94.9596 204.235L94.4774 203.359ZM73.9779 207.124C66.5298 206.183 60.8619 203.868 56.9189 200.224L56.2402 200.959C60.3843 204.788 66.2735 207.158 73.8526 208.116L73.9779 207.124ZM56.923 200.228C54.9726 198.384 53.5705 196.72 52.6956 195.236C51.8195 193.75 51.4955 192.486 51.6303 191.419L50.6382 191.293C50.4654 192.66 50.8952 194.152 51.8342 195.744C52.7744 197.339 54.2487 199.076 56.236 200.955L56.923 200.228ZM51.6303 191.419C51.7014 190.856 52.1767 190.051 53.2423 188.989C54.2875 187.946 55.8269 186.726 57.8745 185.328L57.3106 184.502C55.2399 185.916 53.6437 187.176 52.5361 188.28C51.4489 189.365 50.7542 190.375 50.6382 191.293L51.6303 191.419ZM57.881 185.323C61.9966 182.416 65.3021 180.802 67.819 180.401L67.6615 179.413C64.9116 179.852 61.4519 181.576 57.3041 184.506L57.881 185.323ZM67.3948 180.269C72.1032 184.768 75.6244 191.413 77.9264 200.25L78.8941 199.998C76.5626 191.048 72.9705 184.214 68.0857 179.546L67.3948 180.269ZM78.3879 200.624C80.429 200.715 82.0946 200.351 83.3162 199.457C84.55 198.554 85.2551 197.165 85.4816 195.373L84.4895 195.248C84.2881 196.842 83.6835 197.949 82.7255 198.65C81.7553 199.36 80.3472 199.71 78.4327 199.625L78.3879 200.624ZM85.4816 195.373C85.8062 192.803 85.0626 189.63 83.3383 185.885C81.6098 182.131 78.8712 177.752 75.1356 172.751L74.3344 173.349C78.0475 178.32 80.7417 182.637 82.43 186.303C84.1226 189.979 84.7799 192.949 84.4895 195.248L85.4816 195.373ZM75.1373 172.753C71.432 167.731 68.75 163.323 67.0785 159.526C65.4042 155.723 64.7626 152.577 65.0808 150.058L64.0887 149.933C63.7383 152.706 64.4542 156.047 66.1633 159.929C67.8752 163.817 70.6026 168.291 74.3326 173.347L75.1373 172.753ZM65.0808 150.058C65.726 144.952 68.5016 141.322 73.4737 139.133L73.0707 138.218C67.7966 140.54 64.7805 144.457 64.0887 149.933L65.0808 150.058ZM73.4811 139.13C78.5179 136.814 84.3228 136.06 90.9148 136.893L91.0401 135.901C84.2982 135.049 78.2995 135.814 73.0634 138.221L73.4811 139.13ZM90.9148 136.893C97.6431 137.743 102.447 139.581 105.415 142.339L106.095 141.607C102.905 138.642 97.8575 136.762 91.0401 135.901L90.9148 136.893ZM105.422 142.346C108.391 144.992 109.616 148.271 109.115 152.235L110.107 152.361C110.649 148.071 109.304 144.466 106.088 141.6L105.422 142.346ZM109.115 152.235C108.877 154.121 107.824 156.344 105.879 158.913C103.94 161.476 101.142 164.345 97.475 167.523L98.1298 168.279C101.827 165.076 104.68 162.155 106.677 159.516C108.669 156.884 109.838 154.496 110.107 152.361L109.115 152.235ZM97.4073 168.207C98.0481 169.033 98.8688 170.152 99.8706 171.567L100.687 170.989C99.6811 169.569 98.851 168.437 98.1974 167.594L97.4073 168.207ZM99.8835 171.584C100.854 172.836 102.08 175.247 103.557 178.874L104.483 178.497C103.005 174.869 101.737 172.342 100.674 170.971L99.8835 171.584ZM103.557 178.874C105.011 182.445 105.538 185.652 105.177 188.508L106.17 188.633C106.558 185.562 105.982 182.179 104.483 178.497L103.557 178.874ZM93.8587 162.141C98.8364 158.858 101.676 155.273 102.17 151.358L101.178 151.232C100.737 154.725 98.1824 158.092 93.3082 161.306L93.8587 162.141ZM102.17 151.358C102.42 149.379 101.93 147.74 100.639 146.524C99.3745 145.332 97.4049 144.607 94.8196 144.281L94.6942 145.273C97.1885 145.588 98.9117 146.27 99.9531 147.251C100.968 148.208 101.396 149.507 101.178 151.232L102.17 151.358ZM94.8196 144.281C92.3145 143.964 90.1322 144.242 88.3013 145.154L88.7473 146.049C90.3586 145.246 92.3313 144.974 94.6942 145.273L94.8196 144.281ZM88.3228 145.144C86.5347 145.932 85.4176 147.055 85.226 148.572L86.2181 148.697C86.3474 147.674 87.0984 146.776 88.7258 146.059L88.3228 145.144ZM85.226 148.572C85.0595 149.89 85.5218 151.478 86.4959 153.298C87.4764 155.129 89.0104 157.259 91.083 159.684L91.8431 159.034C89.7943 156.637 88.3106 154.569 87.3775 152.826C86.4379 151.071 86.0905 149.707 86.2181 148.697L85.226 148.572ZM91.0908 159.693L93.2112 162.057L93.9557 161.389L91.8353 159.025L91.0908 159.693Z" fill="url(#paint7_linear_300_189)"/>
</g>
<g filter="url(#filter4_d_300_189)">
<mask id="path-10-inside-1_300_189" fill="white">
<path fill-rule="evenodd" clip-rule="evenodd" d="M374.008 47.0429C378.177 42.7515 382.299 38.5092 381.65 31.2558C380.878 26.0075 376.754 23.5892 372.685 24.3792C369.905 24.9189 367.523 27.443 366.549 30.3166C364.407 28.5311 361.373 27.5734 358.86 28.0613C354.791 28.8513 351.737 32.3612 352.546 36.5273C353.355 40.6933 354.884 43.6223 370.591 50.0852C370.786 50.1654 370.95 50.1757 371.086 50.124C371.091 50.1294 371.096 50.1348 371.101 50.1401C371.112 50.1276 371.123 50.1151 371.134 50.1026C371.251 50.0427 371.345 49.9335 371.419 49.7808C372.255 48.8471 373.133 47.9439 374.008 47.0429Z"/>
</mask>
<path fill-rule="evenodd" clip-rule="evenodd" d="M374.008 47.0429C378.177 42.7515 382.299 38.5092 381.65 31.2558C380.878 26.0075 376.754 23.5892 372.685 24.3792C369.905 24.9189 367.523 27.443 366.549 30.3166C364.407 28.5311 361.373 27.5734 358.86 28.0613C354.791 28.8513 351.737 32.3612 352.546 36.5273C353.355 40.6933 354.884 43.6223 370.591 50.0852C370.786 50.1654 370.95 50.1757 371.086 50.124C371.091 50.1294 371.096 50.1348 371.101 50.1401C371.112 50.1276 371.123 50.1151 371.134 50.1026C371.251 50.0427 371.345 49.9335 371.419 49.7808C372.255 48.8471 373.133 47.9439 374.008 47.0429Z" fill="url(#paint8_linear_300_189)"/>
<path d="M381.65 31.2558L382.148 31.2112L382.147 31.1971L382.145 31.183L381.65 31.2558ZM374.008 47.0429L373.649 46.6944L374.008 47.0429ZM372.685 24.3792L372.59 23.8884L372.685 24.3792ZM366.549 30.3166L366.229 30.7008L366.789 31.1673L367.023 30.477L366.549 30.3166ZM358.86 28.0613L358.955 28.5522L358.86 28.0613ZM370.591 50.0852L370.401 50.5476L370.591 50.0852ZM371.086 50.124L371.448 49.7794L371.219 49.5388L370.909 49.6565L371.086 50.124ZM371.101 50.1401L370.74 50.4857L371.117 50.8806L371.477 50.4695L371.101 50.1401ZM371.134 50.1026L370.906 49.6578L370.821 49.7013L370.758 49.7728L371.134 50.1026ZM371.419 49.7808L371.047 49.4473L371 49.4992L370.97 49.5618L371.419 49.7808ZM381.152 31.3003C381.778 38.2993 377.834 42.3875 373.649 46.6944L374.367 47.3913C378.521 43.1156 382.819 38.7191 382.148 31.2112L381.152 31.3003ZM372.78 24.87C374.689 24.4994 376.597 24.8831 378.115 25.9608C379.628 27.0359 380.787 28.8253 381.155 31.3285L382.145 31.183C381.741 28.4379 380.452 26.3941 378.694 25.1455C376.939 23.8995 374.75 23.469 372.59 23.8884L372.78 24.87ZM367.023 30.477C367.955 27.7242 370.223 25.3666 372.78 24.87L372.59 23.8884C369.588 24.4712 367.09 27.1618 366.076 30.1563L367.023 30.477ZM358.955 28.5522C361.293 28.0982 364.179 28.9919 366.229 30.7008L366.87 29.9325C364.635 28.0704 361.453 27.0486 358.764 27.5705L358.955 28.5522ZM353.036 36.432C352.292 32.5997 355.09 29.3026 358.955 28.5522L358.764 27.5705C354.492 28.4001 351.181 32.1228 352.055 36.6226L353.036 36.432ZM370.781 49.6228C362.931 46.3929 358.686 44.0691 356.304 42.0625C355.121 41.0667 354.408 40.1573 353.941 39.2628C353.472 38.3651 353.235 37.4566 353.036 36.432L352.055 36.6226C352.26 37.681 352.519 38.7008 353.055 39.726C353.592 40.7544 354.395 41.7623 355.659 42.8273C358.17 44.9424 362.543 47.3146 370.401 50.5476L370.781 49.6228ZM370.909 49.6565C370.915 49.6539 370.914 49.6567 370.897 49.6554C370.879 49.654 370.841 49.6474 370.781 49.6228L370.401 50.5476C370.67 50.6584 370.971 50.7024 371.263 50.5916L370.909 49.6565ZM371.463 49.7946C371.458 49.7896 371.453 49.7845 371.448 49.7794L370.724 50.4687C370.729 50.4743 370.734 50.48 370.74 50.4857L371.463 49.7946ZM370.758 49.7728C370.747 49.7854 370.736 49.7981 370.725 49.8108L371.477 50.4695C371.488 50.4571 371.499 50.4447 371.51 50.4324L370.758 49.7728ZM370.97 49.5618C370.925 49.6533 370.896 49.6629 370.906 49.6578L371.363 50.5473C371.606 50.4225 371.765 50.2137 371.869 49.9997L370.97 49.5618ZM373.649 46.6944C372.775 47.5942 371.891 48.5047 371.047 49.4473L371.792 50.1143C372.62 49.1895 373.49 48.2935 374.367 47.3913L373.649 46.6944Z" fill="url(#paint9_linear_300_189)" mask="url(#path-10-inside-1_300_189)"/>
</g>
<g filter="url(#filter5_d_300_189)">
<mask id="path-12-inside-2_300_189" fill="white">
<path fill-rule="evenodd" clip-rule="evenodd" d="M149.008 25.0429C153.177 20.7515 157.299 16.5092 156.65 9.25576C155.878 4.00753 151.754 1.58921 147.685 2.3792C144.905 2.9189 142.523 5.44302 141.549 8.31663C139.407 6.53115 136.373 5.57337 133.86 6.06134C129.791 6.85133 126.737 10.3612 127.546 14.5273C128.355 18.6933 129.884 21.6223 145.591 28.0852C145.786 28.1654 145.95 28.1757 146.086 28.124C146.091 28.1294 146.096 28.1348 146.101 28.1401C146.112 28.1276 146.123 28.1151 146.134 28.1026C146.251 28.0427 146.345 27.9335 146.419 27.7808C147.255 26.8471 148.133 25.9439 149.008 25.0429Z"/>
</mask>
<path fill-rule="evenodd" clip-rule="evenodd" d="M149.008 25.0429C153.177 20.7515 157.299 16.5092 156.65 9.25576C155.878 4.00753 151.754 1.58921 147.685 2.3792C144.905 2.9189 142.523 5.44302 141.549 8.31663C139.407 6.53115 136.373 5.57337 133.86 6.06134C129.791 6.85133 126.737 10.3612 127.546 14.5273C128.355 18.6933 129.884 21.6223 145.591 28.0852C145.786 28.1654 145.95 28.1757 146.086 28.124C146.091 28.1294 146.096 28.1348 146.101 28.1401C146.112 28.1276 146.123 28.1151 146.134 28.1026C146.251 28.0427 146.345 27.9335 146.419 27.7808C147.255 26.8471 148.133 25.9439 149.008 25.0429Z" fill="url(#paint10_linear_300_189)"/>
<path d="M156.65 9.25576L157.148 9.21122L157.147 9.19708L157.145 9.18304L156.65 9.25576ZM149.008 25.0429L148.649 24.6944L149.008 25.0429ZM147.685 2.3792L147.59 1.88836L147.685 2.3792ZM141.549 8.31663L141.229 8.70076L141.789 9.16729L142.023 8.47699L141.549 8.31663ZM133.86 6.06134L133.955 6.55217L133.86 6.06134ZM145.591 28.0852L145.401 28.5476L145.591 28.0852ZM146.086 28.124L146.448 27.7794L146.219 27.5388L145.909 27.6565L146.086 28.124ZM146.101 28.1401L145.74 28.4857L146.117 28.8806L146.477 28.4695L146.101 28.1401ZM146.134 28.1026L145.906 27.6578L145.821 27.7013L145.758 27.7728L146.134 28.1026ZM146.419 27.7808L146.047 27.4473L146 27.4992L145.97 27.5618L146.419 27.7808ZM156.152 9.3003C156.778 16.2993 152.834 20.3875 148.649 24.6944L149.367 25.3913C153.521 21.1156 157.819 16.7191 157.148 9.21122L156.152 9.3003ZM147.78 2.87003C149.689 2.49941 151.597 2.88312 153.115 3.96082C154.628 5.03587 155.787 6.82535 156.155 9.32849L157.145 9.18304C156.741 6.43795 155.452 4.39415 153.694 3.14548C151.939 1.89946 149.75 1.46899 147.59 1.88836L147.78 2.87003ZM142.023 8.47699C142.955 5.7242 145.223 3.36662 147.78 2.87003L147.59 1.88836C144.588 2.47117 142.09 5.16184 141.076 8.15627L142.023 8.47699ZM133.955 6.55217C136.293 6.09818 139.179 6.99192 141.229 8.70076L141.87 7.9325C139.635 6.07038 136.453 5.04856 133.764 5.57051L133.955 6.55217ZM128.036 14.432C127.292 10.5997 130.09 7.30258 133.955 6.55217L133.764 5.57051C129.492 6.40008 126.181 10.1228 127.055 14.6226L128.036 14.432ZM145.781 27.6228C137.931 24.3929 133.686 22.0691 131.304 20.0625C130.121 19.0667 129.408 18.1573 128.941 17.2628C128.472 16.3651 128.235 15.4566 128.036 14.432L127.055 14.6226C127.26 15.681 127.519 16.7008 128.055 17.726C128.592 18.7544 129.395 19.7623 130.659 20.8273C133.17 22.9424 137.543 25.3146 145.401 28.5476L145.781 27.6228ZM145.909 27.6565C145.915 27.6539 145.914 27.6567 145.897 27.6554C145.879 27.654 145.841 27.6474 145.781 27.6228L145.401 28.5476C145.67 28.6584 145.971 28.7024 146.263 28.5916L145.909 27.6565ZM146.463 27.7946C146.458 27.7896 146.453 27.7845 146.448 27.7794L145.724 28.4687C145.729 28.4743 145.734 28.48 145.74 28.4857L146.463 27.7946ZM145.758 27.7728C145.747 27.7854 145.736 27.7981 145.725 27.8108L146.477 28.4695C146.488 28.4571 146.499 28.4447 146.51 28.4324L145.758 27.7728ZM145.97 27.5618C145.925 27.6533 145.896 27.6629 145.906 27.6578L146.363 28.5473C146.606 28.4225 146.765 28.2137 146.869 27.9997L145.97 27.5618ZM148.649 24.6944C147.775 25.5942 146.891 26.5047 146.047 27.4473L146.792 28.1143C147.62 27.1895 148.49 26.2935 149.367 25.3913L148.649 24.6944Z" fill="url(#paint11_linear_300_189)" mask="url(#path-12-inside-2_300_189)"/>
</g>
<g filter="url(#filter6_d_300_189)">
<mask id="path-14-inside-3_300_189" fill="white">
<path fill-rule="evenodd" clip-rule="evenodd" d="M21.0922 104.667C26.7244 102.648 32.2923 100.653 34.9017 93.8539C36.5184 88.8016 33.8789 84.815 29.8777 83.7339C27.1441 82.9953 23.8935 84.2132 21.7552 86.3655C20.6167 83.8191 18.314 81.6241 15.8425 80.9563C11.8413 79.8752 7.55411 81.683 6.44714 85.7799C5.34018 89.8768 5.42447 93.1799 16.6848 105.895C16.8245 106.053 16.9673 106.135 17.1122 106.148C17.1145 106.155 17.1167 106.162 17.1189 106.169C17.1343 106.163 17.1497 106.157 17.165 106.15C17.296 106.148 17.4288 106.091 17.5628 105.987C18.7242 105.516 19.9097 105.091 21.0922 104.667Z"/>
</mask>
<path fill-rule="evenodd" clip-rule="evenodd" d="M21.0922 104.667C26.7244 102.648 32.2923 100.653 34.9017 93.8539C36.5184 88.8016 33.8789 84.815 29.8777 83.7339C27.1441 82.9953 23.8935 84.2132 21.7552 86.3655C20.6167 83.8191 18.314 81.6241 15.8425 80.9563C11.8413 79.8752 7.55411 81.683 6.44714 85.7799C5.34018 89.8768 5.42447 93.1799 16.6848 105.895C16.8245 106.053 16.9673 106.135 17.1122 106.148C17.1145 106.155 17.1167 106.162 17.1189 106.169C17.1343 106.163 17.1497 106.157 17.165 106.15C17.296 106.148 17.4288 106.091 17.5628 105.987C18.7242 105.516 19.9097 105.091 21.0922 104.667Z" fill="url(#paint12_linear_300_189)"/>
<path d="M34.9017 93.8539L35.3685 94.0331L35.3736 94.0198L35.3779 94.0063L34.9017 93.8539ZM21.0922 104.667L20.9235 104.197L21.0922 104.667ZM29.8777 83.7339L30.0081 83.2512L29.8777 83.7339ZM21.7552 86.3655L21.2988 86.5695L21.5962 87.2349L22.1099 86.7179L21.7552 86.3655ZM15.8425 80.9563L15.7121 81.439L15.8425 80.9563ZM16.6848 105.895L16.3105 106.227L16.6848 105.895ZM17.1122 106.148L17.5892 105.998L17.4895 105.681L17.1588 105.65L17.1122 106.148ZM17.1189 106.169L16.6424 106.321L16.8077 106.841L17.3119 106.631L17.1189 106.169ZM17.165 106.15L17.1556 105.65L17.0605 105.652L16.9727 105.689L17.165 106.15ZM17.5628 105.987L17.375 105.523L17.3105 105.549L17.2555 105.592L17.5628 105.987ZM34.4349 93.6747C31.917 100.235 26.5763 102.17 20.9235 104.197L21.2609 105.138C26.8725 103.127 32.6675 101.07 35.3685 94.0331L34.4349 93.6747ZM29.7472 84.2166C31.6244 84.7238 33.1685 85.9078 34.0571 87.5434C34.9434 89.175 35.1966 91.2918 34.4255 93.7015L35.3779 94.0063C36.2235 91.3637 35.9653 88.9611 34.9358 87.066C33.9084 85.175 32.1322 83.8251 30.0081 83.2512L29.7472 84.2166ZM22.1099 86.7179C24.1583 84.6561 27.232 83.537 29.7472 84.2166L30.0081 83.2512C27.0562 82.4536 23.6287 83.7703 21.4005 86.0131L22.1099 86.7179ZM15.7121 81.439C18.0115 82.0603 20.2091 84.1325 21.2988 86.5695L22.2117 86.1614C21.0243 83.5058 18.6165 81.1879 15.9729 80.4736L15.7121 81.439ZM6.92983 85.9103C7.94812 82.1416 11.9113 80.4121 15.7121 81.439L15.9729 80.4736C11.7712 79.3383 7.16009 81.2243 5.96445 85.6495L6.92983 85.9103ZM17.0591 105.564C11.4316 99.2092 8.64207 95.2543 7.38577 92.404C6.7623 90.9895 6.52234 89.8592 6.49612 88.8502C6.46981 87.8377 6.65758 86.9179 6.92983 85.9103L5.96445 85.6495C5.68322 86.6903 5.46641 87.7198 5.49646 88.8762C5.5266 90.0362 5.80393 91.2945 6.47071 92.8073C7.79489 95.8117 10.6776 99.8661 16.3105 106.227L17.0591 105.564ZM17.1588 105.65C17.1661 105.651 17.1639 105.653 17.1493 105.644C17.1329 105.635 17.102 105.612 17.0591 105.564L16.3105 106.227C16.5035 106.445 16.7545 106.617 17.0656 106.646L17.1588 105.65ZM17.5955 106.018C17.5934 106.011 17.5913 106.005 17.5892 105.998L16.6353 106.298C16.6376 106.306 16.64 106.313 16.6424 106.321L17.5955 106.018ZM16.9727 105.689C16.9571 105.695 16.9416 105.702 16.926 105.708L17.3119 106.631C17.327 106.624 17.3422 106.618 17.3574 106.612L16.9727 105.689ZM17.2555 105.592C17.1752 105.655 17.1444 105.65 17.1556 105.65L17.1744 106.65C17.4476 106.645 17.6824 106.527 17.8701 106.381L17.2555 105.592ZM20.9235 104.197C19.7426 104.62 18.5475 105.048 17.375 105.523L17.7506 106.45C18.901 105.984 20.0767 105.562 21.2609 105.138L20.9235 104.197Z" fill="url(#paint13_linear_300_189)" mask="url(#path-14-inside-3_300_189)"/>
</g>
<g filter="url(#filter7_d_300_189)">
<mask id="path-16-inside-4_300_189" fill="white">
<path fill-rule="evenodd" clip-rule="evenodd" d="M545.753 61.0429C549.922 56.7515 554.044 52.5092 553.395 45.2558C552.623 40.0075 548.499 37.5892 544.43 38.3792C541.65 38.9189 539.267 41.443 538.294 44.3166C536.151 42.5311 533.118 41.5734 530.605 42.0613C526.536 42.8513 523.482 46.3612 524.291 50.5273C525.099 54.6933 526.629 57.6223 542.336 64.0852C542.531 64.1654 542.695 64.1757 542.831 64.124C542.836 64.1294 542.841 64.1348 542.846 64.1401C542.857 64.1276 542.868 64.1151 542.879 64.1026C542.996 64.0427 543.09 63.9335 543.164 63.7808C544 62.8471 544.878 61.9439 545.753 61.0429Z"/>
</mask>
<path fill-rule="evenodd" clip-rule="evenodd" d="M545.753 61.0429C549.922 56.7515 554.044 52.5092 553.395 45.2558C552.623 40.0075 548.499 37.5892 544.43 38.3792C541.65 38.9189 539.267 41.443 538.294 44.3166C536.151 42.5311 533.118 41.5734 530.605 42.0613C526.536 42.8513 523.482 46.3612 524.291 50.5273C525.099 54.6933 526.629 57.6223 542.336 64.0852C542.531 64.1654 542.695 64.1757 542.831 64.124C542.836 64.1294 542.841 64.1348 542.846 64.1401C542.857 64.1276 542.868 64.1151 542.879 64.1026C542.996 64.0427 543.09 63.9335 543.164 63.7808C544 62.8471 544.878 61.9439 545.753 61.0429Z" fill="url(#paint14_linear_300_189)"/>
<path d="M553.395 45.2558L553.893 45.2112L553.892 45.1971L553.89 45.183L553.395 45.2558ZM545.753 61.0429L545.394 60.6944L545.753 61.0429ZM544.43 38.3792L544.335 37.8884L544.43 38.3792ZM538.294 44.3166L537.974 44.7008L538.534 45.1673L538.768 44.477L538.294 44.3166ZM530.605 42.0613L530.7 42.5522L530.605 42.0613ZM542.336 64.0852L542.145 64.5476L542.336 64.0852ZM542.831 64.124L543.193 63.7794L542.964 63.5388L542.653 63.6565L542.831 64.124ZM542.846 64.1401L542.485 64.4857L542.862 64.8806L543.222 64.4695L542.846 64.1401ZM542.879 64.1026L542.651 63.6578L542.566 63.7013L542.503 63.7728L542.879 64.1026ZM543.164 63.7808L542.792 63.4473L542.745 63.4992L542.715 63.5618L543.164 63.7808ZM552.897 45.3003C553.523 52.2993 549.579 56.3875 545.394 60.6944L546.112 61.3913C550.265 57.1156 554.564 52.7191 553.893 45.2112L552.897 45.3003ZM544.525 38.87C546.434 38.4994 548.342 38.8831 549.859 39.9608C551.373 41.0359 552.532 42.8253 552.9 45.3285L553.89 45.183C553.486 42.4379 552.197 40.3941 550.438 39.1455C548.684 37.8995 546.495 37.469 544.335 37.8884L544.525 38.87ZM538.768 44.477C539.7 41.7242 541.968 39.3666 544.525 38.87L544.335 37.8884C541.333 38.4712 538.835 41.1618 537.821 44.1563L538.768 44.477ZM530.7 42.5522C533.038 42.0982 535.923 42.9919 537.974 44.7008L538.614 43.9325C536.38 42.0704 533.198 41.0486 530.509 41.5705L530.7 42.5522ZM524.781 50.432C524.037 46.5997 526.835 43.3026 530.7 42.5522L530.509 41.5705C526.237 42.4001 522.926 46.1228 523.8 50.6226L524.781 50.432ZM542.526 63.6228C534.676 60.3929 530.431 58.0691 528.048 56.0625C526.866 55.0667 526.153 54.1573 525.686 53.2628C525.216 52.3651 524.98 51.4566 524.781 50.432L523.8 50.6226C524.005 51.681 524.264 52.7008 524.799 53.726C525.337 54.7544 526.14 55.7623 527.404 56.8273C529.915 58.9424 534.288 61.3146 542.145 64.5476L542.526 63.6228ZM542.653 63.6565C542.66 63.6539 542.659 63.6567 542.642 63.6554C542.623 63.654 542.586 63.6474 542.526 63.6228L542.145 64.5476C542.415 64.6584 542.716 64.7024 543.008 64.5916L542.653 63.6565ZM543.207 63.7946C543.203 63.7896 543.198 63.7845 543.193 63.7794L542.468 64.4687C542.474 64.4743 542.479 64.48 542.485 64.4857L543.207 63.7946ZM542.503 63.7728C542.492 63.7854 542.481 63.7981 542.47 63.8108L543.222 64.4695C543.233 64.4571 543.244 64.4447 543.255 64.4324L542.503 63.7728ZM542.715 63.5618C542.67 63.6533 542.641 63.6629 542.651 63.6578L543.107 64.5473C543.35 64.4225 543.51 64.2137 543.614 63.9997L542.715 63.5618ZM545.394 60.6944C544.52 61.5942 543.636 62.5047 542.792 63.4473L543.537 64.1143C544.365 63.1895 545.235 62.2935 546.112 61.3913L545.394 60.6944Z" fill="url(#paint15_linear_300_189)" mask="url(#path-16-inside-4_300_189)"/>
</g>
<ellipse cx="239.206" cy="95.573" rx="17.5" ry="25.5" transform="rotate(-43.1416 239.206 95.573)" fill="#F8B274"/>
<path d="M158 112.5C158 122.993 143.046 136.5 132 136.5C120.954 136.5 112 127.993 112 117.5C112 107.007 126.454 90 137.5 90C148.546 90 158 102.007 158 112.5Z" fill="#F8B274"/>
<path d="M270.5 168.5C270.5 197.495 219.033 194.5 187 194.5C154.967 194.5 129 170.995 129 142C129 113.005 155.5 81.5 206.5 79C238.533 79 270.5 139.505 270.5 168.5Z" fill="url(#paint16_linear_300_189)"/>
<path fill-rule="evenodd" clip-rule="evenodd" d="M227.308 264.613C237.168 260.939 245.716 255.342 252.644 248.453C266.908 241.503 284.76 220.032 286 203.5C286 192.732 277.632 181.611 267.274 176.972C253.566 145.767 216.28 130.824 182.19 143.526C146.919 156.668 128.427 194.428 140.886 227.866C141.23 228.79 141.594 229.701 141.978 230.599C141.019 233.082 140.5 235.739 140.5 238.5C143.39 260.178 169.008 266.54 185.201 266.975C198.516 270.393 213.187 269.875 227.308 264.613Z" fill="url(#paint17_linear_300_189)"/>
<path fill-rule="evenodd" clip-rule="evenodd" d="M250.231 228.216C262.89 222.748 271.22 210.8 263.555 193.054C255.889 175.309 240.857 155.5 221.055 164.054C208.396 169.523 207.389 197.809 215.055 215.555C222.721 233.3 237.573 233.684 250.231 228.216ZM191.229 250.217C203.888 244.749 212.72 234.8 205.055 217.054C197.389 199.309 184.055 178.054 163.47 185.956C150.811 191.424 147.389 218.809 155.055 236.554C162.72 254.299 178.571 255.685 191.229 250.217Z" fill="#3A4861"/>
<path fill-rule="evenodd" clip-rule="evenodd" d="M252.23 233.216C264.888 227.747 273.219 215.799 265.553 198.054C257.888 180.309 242.855 160.5 223.053 169.054C210.395 174.522 209.388 202.809 217.054 220.554C224.719 238.299 239.571 238.684 252.23 233.216ZM193.228 255.216C205.886 249.748 214.719 239.799 207.053 222.054C199.388 204.309 186.053 183.054 165.468 190.956C152.81 196.424 149.388 223.809 157.053 241.554C164.719 259.299 180.569 260.685 193.228 255.216Z" fill="#FEFFFA"/>
<path d="M274.588 204.349C279.423 221.613 255.515 244.795 224.64 256.903C193.766 269.011 165.088 265.349 155.588 255.849C140.228 235.767 170.588 216.349 208.141 218.403C241.088 190.349 271.423 182.613 274.588 204.349Z" fill="#FEFFFA"/>
<g filter="url(#filter8_d_300_189)">
<mask id="path-25-inside-5_300_189" fill="white">
<path fill-rule="evenodd" clip-rule="evenodd" d="M293.708 249.266C299.233 277.081 285.037 295.219 270.677 313.566C267.662 317.418 264.64 321.279 261.792 325.241C261.567 325.864 261.247 326.327 260.82 326.607L260.708 326.766L260.642 326.71C260.634 326.714 260.627 326.718 260.619 326.722L261.05 326.393L254.621 317.978L258.595 307.04L258.851 306.336L258.247 305.893L251.084 300.634L256.496 287.828L256.93 286.801L255.863 286.481L246.286 283.605L248.765 266.237L248.928 265.096H247.775H235.255V251H235.064C237.854 239.814 245.878 229.524 256.141 226.364C271.567 221.616 288.541 229.266 293.708 249.266ZM233.431 251H233.255V266.096V267.096H234.255H246.622L244.185 284.174L244.063 285.025L244.887 285.273L254.22 288.076L248.934 300.583L248.626 301.311L249.263 301.779L256.459 307.061L252.555 317.809L252.368 318.323L252.7 318.758L258.846 326.803C258.801 326.791 258.756 326.779 258.71 326.765C195.209 308.266 188.072 297.56 183.209 281.766C178.347 265.971 188.715 251.113 204.14 246.364C213.178 243.582 224.569 245.641 233.431 251Z"/>
</mask>
<path fill-rule="evenodd" clip-rule="evenodd" d="M293.708 249.266C299.233 277.081 285.037 295.219 270.677 313.566C267.662 317.418 264.64 321.279 261.792 325.241C261.567 325.864 261.247 326.327 260.82 326.607L260.708 326.766L260.642 326.71C260.634 326.714 260.627 326.718 260.619 326.722L261.05 326.393L254.621 317.978L258.595 307.04L258.851 306.336L258.247 305.893L251.084 300.634L256.496 287.828L256.93 286.801L255.863 286.481L246.286 283.605L248.765 266.237L248.928 265.096H247.775H235.255V251H235.064C237.854 239.814 245.878 229.524 256.141 226.364C271.567 221.616 288.541 229.266 293.708 249.266ZM233.431 251H233.255V266.096V267.096H234.255H246.622L244.185 284.174L244.063 285.025L244.887 285.273L254.22 288.076L248.934 300.583L248.626 301.311L249.263 301.779L256.459 307.061L252.555 317.809L252.368 318.323L252.7 318.758L258.846 326.803C258.801 326.791 258.756 326.779 258.71 326.765C195.209 308.266 188.072 297.56 183.209 281.766C178.347 265.971 188.715 251.113 204.14 246.364C213.178 243.582 224.569 245.641 233.431 251Z" fill="url(#paint18_linear_300_189)"/>
<path d="M270.677 313.566L270.283 313.258L270.677 313.566ZM293.708 249.266L294.199 249.169L294.196 249.155L294.193 249.141L293.708 249.266ZM261.792 325.241L261.386 324.949L261.345 325.006L261.322 325.072L261.792 325.241ZM260.82 326.607L260.546 326.189L260.466 326.242L260.411 326.32L260.82 326.607ZM260.708 326.766L260.385 327.148L260.803 327.501L261.117 327.054L260.708 326.766ZM260.642 326.71L260.965 326.329L260.712 326.114L260.416 326.264L260.642 326.71ZM260.619 326.722L260.315 326.325L260.838 327.171L260.619 326.722ZM261.05 326.393L261.353 326.79L261.75 326.487L261.447 326.089L261.05 326.393ZM254.621 317.978L254.152 317.807L254.058 318.064L254.224 318.282L254.621 317.978ZM258.595 307.04L258.125 306.869L258.595 307.04ZM258.851 306.336L259.321 306.507L259.448 306.155L259.146 305.933L258.851 306.336ZM258.247 305.893L258.543 305.489H258.543L258.247 305.893ZM251.084 300.634L250.623 300.439L250.469 300.803L250.788 301.037L251.084 300.634ZM256.496 287.828L256.957 288.022L256.496 287.828ZM256.93 286.801L257.39 286.996L257.607 286.483L257.074 286.322L256.93 286.801ZM255.863 286.481L255.719 286.959L255.863 286.481ZM246.286 283.605L245.791 283.534L245.731 283.96L246.143 284.084L246.286 283.605ZM248.765 266.237L249.26 266.308L248.765 266.237ZM248.928 265.096L249.423 265.167L249.504 264.596H248.928V265.096ZM235.255 265.096H234.755V265.596H235.255V265.096ZM235.255 251H235.755V250.5H235.255V251ZM235.064 251L234.579 250.879L234.424 251.5H235.064V251ZM256.141 226.364L255.994 225.887L256.141 226.364ZM233.255 251V250.5H232.755V251H233.255ZM233.431 251V251.5H235.224L233.689 250.572L233.431 251ZM233.255 267.096H232.755V267.596H233.255V267.096ZM246.622 267.096L247.117 267.167L247.198 266.596H246.622V267.096ZM244.185 284.174L243.69 284.103L244.185 284.174ZM244.063 285.025L243.568 284.955L243.508 285.381L243.92 285.504L244.063 285.025ZM244.887 285.273L244.743 285.752L244.887 285.273ZM254.22 288.076L254.68 288.27L254.897 287.757L254.364 287.597L254.22 288.076ZM248.934 300.583L249.394 300.778L248.934 300.583ZM248.626 301.311L248.166 301.116L248.012 301.48L248.33 301.714L248.626 301.311ZM249.263 301.779L249.559 301.376L249.263 301.779ZM256.459 307.061L256.929 307.232L257.057 306.88L256.755 306.658L256.459 307.061ZM252.555 317.809L253.025 317.98L252.555 317.809ZM252.368 318.323L251.898 318.152L251.805 318.409L251.971 318.627L252.368 318.323ZM252.7 318.758L253.098 318.454V318.454L252.7 318.758ZM258.846 326.803L258.721 327.287L260.122 327.65L259.243 326.499L258.846 326.803ZM258.71 326.765L258.57 327.245L258.57 327.245L258.71 326.765ZM204.14 246.364L203.993 245.886L204.14 246.364ZM271.071 313.875C285.417 295.544 299.773 277.234 294.199 249.169L293.218 249.364C298.693 276.928 284.657 294.894 270.283 313.258L271.071 313.875ZM262.198 325.533C265.039 321.581 268.055 317.728 271.071 313.875L270.283 313.258C267.27 317.109 264.241 320.978 261.386 324.949L262.198 325.533ZM261.094 327.025C261.64 326.667 262.014 326.098 262.262 325.411L261.322 325.072C261.12 325.631 260.854 325.987 260.546 326.189L261.094 327.025ZM261.117 327.054L261.229 326.895L260.411 326.32L260.299 326.479L261.117 327.054ZM260.319 327.092L260.385 327.148L261.031 326.384L260.965 326.329L260.319 327.092ZM260.838 327.171C260.848 327.166 260.858 327.161 260.868 327.156L260.416 326.264C260.411 326.267 260.405 326.27 260.399 326.273L260.838 327.171ZM260.746 325.996L260.315 326.325L260.922 327.119L261.353 326.79L260.746 325.996ZM254.224 318.282L260.652 326.696L261.447 326.089L255.019 317.675L254.224 318.282ZM258.125 306.869L254.152 317.807L255.091 318.149L259.065 307.211L258.125 306.869ZM258.381 306.165L258.125 306.869L259.065 307.211L259.321 306.507L258.381 306.165ZM257.951 306.296L258.555 306.739L259.146 305.933L258.543 305.489L257.951 306.296ZM250.788 301.037L257.951 306.296L258.543 305.489L251.379 300.231L250.788 301.037ZM256.035 287.633L250.623 300.439L251.544 300.829L256.957 288.022L256.035 287.633ZM256.469 286.606L256.035 287.633L256.957 288.022L257.39 286.996L256.469 286.606ZM255.719 286.959L256.786 287.28L257.074 286.322L256.006 286.002L255.719 286.959ZM246.143 284.084L255.719 286.959L256.006 286.002L246.43 283.126L246.143 284.084ZM248.27 266.167L245.791 283.534L246.781 283.675L249.26 266.308L248.27 266.167ZM248.433 265.025L248.27 266.167L249.26 266.308L249.423 265.167L248.433 265.025ZM247.775 265.596H248.928V264.596H247.775V265.596ZM235.255 265.596H247.775V264.596H235.255V265.596ZM234.755 251V265.096H235.755V251H234.755ZM235.064 251.5H235.255V250.5H235.064V251.5ZM255.994 225.887C245.52 229.111 237.398 239.573 234.579 250.879L235.549 251.121C238.309 240.055 246.236 229.937 256.288 226.842L255.994 225.887ZM294.193 249.141C291.578 239.023 285.965 231.99 279.016 228.098C272.071 224.208 263.829 223.475 255.994 225.887L256.288 226.842C263.879 224.506 271.836 225.223 278.527 228.971C285.214 232.716 290.671 239.51 293.224 249.391L294.193 249.141ZM233.255 251.5H233.431V250.5H233.255V251.5ZM233.755 266.096V251H232.755V266.096H233.755ZM233.755 267.096V266.096H232.755V267.096H233.755ZM234.255 266.596H233.255V267.596H234.255V266.596ZM246.622 266.596H234.255V267.596H246.622V266.596ZM244.68 284.244L247.117 267.167L246.127 267.025L243.69 284.103L244.68 284.244ZM244.558 285.096L244.68 284.244L243.69 284.103L243.568 284.955L244.558 285.096ZM245.031 284.794L244.207 284.547L243.92 285.504L244.743 285.752L245.031 284.794ZM254.364 287.597L245.031 284.794L244.743 285.752L254.076 288.554L254.364 287.597ZM249.394 300.778L254.68 288.27L253.759 287.881L248.473 300.389L249.394 300.778ZM249.087 301.506L249.394 300.778L248.473 300.389L248.166 301.116L249.087 301.506ZM249.559 301.376L248.922 300.908L248.33 301.714L248.967 302.182L249.559 301.376ZM256.755 306.658L249.559 301.376L248.967 302.182L256.163 307.464L256.755 306.658ZM253.025 317.98L256.929 307.232L255.989 306.891L252.085 317.639L253.025 317.98ZM252.838 318.494L253.025 317.98L252.085 317.639L251.898 318.152L252.838 318.494ZM253.098 318.454L252.766 318.02L251.971 318.627L252.303 319.061L253.098 318.454ZM259.243 326.499L253.098 318.454L252.303 319.061L258.449 327.106L259.243 326.499ZM258.57 327.245C258.62 327.26 258.671 327.274 258.721 327.287L258.971 326.319C258.931 326.308 258.891 326.297 258.85 326.285L258.57 327.245ZM182.731 281.913C183.952 285.878 185.327 289.563 187.712 293.136C190.099 296.713 193.481 300.154 198.691 303.666C209.09 310.676 226.816 317.994 258.57 327.245L258.85 326.285C227.103 317.037 209.51 309.753 199.25 302.837C194.129 299.385 190.847 296.032 188.544 292.581C186.239 289.127 184.898 285.551 183.687 281.619L182.731 281.913ZM203.993 245.886C188.369 250.696 177.769 265.793 182.731 281.913L183.687 281.619C178.925 266.149 189.06 251.529 204.288 246.842L203.993 245.886ZM233.689 250.572C224.732 245.155 213.194 243.053 203.993 245.886L204.288 246.842C213.162 244.11 224.405 246.127 233.172 251.428L233.689 250.572Z" fill="url(#paint19_linear_300_189)" mask="url(#path-25-inside-5_300_189)"/>
</g>
<path d="M298.792 237.5C290.292 257 269.905 267 260.792 267C251.679 267 267.791 236.113 267.791 227C267.791 217.887 269.678 204 278.791 204C287.903 204 305.292 218.5 298.792 237.5Z" fill="url(#paint20_linear_300_189)"/>
<path d="M267.977 195.098C272.119 194.469 277.211 204.127 276.076 211.766C274.941 219.405 272.271 224.554 267.935 225.175C259.502 225.562 255.477 217.067 261.916 209.969C258.566 199.839 260.935 192.877 267.977 195.098Z" fill="#FEFFFA"/>
<path d="M186.454 267.011C190.168 275.634 221.102 272.884 222.435 284.83C214.112 293.314 187.553 311.282 165.267 293.659C162.627 292.074 145.161 268.46 164.576 257.922C172.946 254.318 182.741 258.387 186.454 267.011Z" fill="url(#paint21_linear_300_189)"/>
<path d="M184.822 260.257C184.54 264.168 173.72 266.201 166.957 263.568C160.194 260.934 152.671 254.586 153 250.5C154.392 242.724 166.368 243.661 171.537 251.021C181.511 250.083 188.315 254.296 184.822 260.257Z" fill="#FEFFFA"/>
<path fill-rule="evenodd" clip-rule="evenodd" d="M194.886 222.768C194.504 220.003 193.545 217.179 191.976 214.498C186.5 205.142 175.657 201.058 167.758 205.377C159.859 209.695 157.895 220.78 163.371 230.136C164.478 232.028 165.805 233.704 167.282 235.138L194.886 222.768Z" fill="#EFEFEF"/>
<mask id="path-32-inside-6_300_189" fill="white">
<path fill-rule="evenodd" clip-rule="evenodd" d="M195.171 224.16C195.016 222.618 194.693 221.045 194.189 219.477C191.149 210.018 182.69 204.277 175.295 206.653C167.9 209.03 164.37 218.624 167.41 228.083C168.17 230.448 169.269 232.581 170.606 234.413L195.171 224.16Z"/>
</mask>
<path fill-rule="evenodd" clip-rule="evenodd" d="M195.171 224.16C195.016 222.618 194.693 221.045 194.189 219.477C191.149 210.018 182.69 204.277 175.295 206.653C167.9 209.03 164.37 218.624 167.41 228.083C168.17 230.448 169.269 232.581 170.606 234.413L195.171 224.16Z" fill="#FEFFFA"/>
<path d="M194.189 219.477L195.141 219.171L195.141 219.171L194.189 219.477ZM195.171 224.16L195.557 225.083L196.24 224.798L196.166 224.06L195.171 224.16ZM175.295 206.653L175.601 207.605L175.295 206.653ZM167.41 228.083L168.362 227.777L167.41 228.083ZM170.606 234.413L169.798 235.002L170.263 235.639L170.991 235.336L170.606 234.413ZM193.237 219.783C193.719 221.285 194.028 222.788 194.176 224.26L196.166 224.06C196.004 222.447 195.666 220.806 195.141 219.171L193.237 219.783ZM175.601 207.605C182.265 205.463 190.292 210.618 193.237 219.783L195.141 219.171C192.006 209.418 183.115 203.09 174.989 205.701L175.601 207.605ZM168.362 227.777C165.417 218.612 168.937 209.747 175.601 207.605L174.989 205.701C166.864 208.312 163.323 218.636 166.458 228.389L168.362 227.777ZM171.414 233.823C170.141 232.079 169.09 230.042 168.362 227.777L166.458 228.389C167.25 230.854 168.398 233.083 169.798 235.002L171.414 233.823ZM170.991 235.336L195.557 225.083L194.786 223.238L170.221 233.49L170.991 235.336Z" fill="url(#paint22_linear_300_189)" mask="url(#path-32-inside-6_300_189)"/>
<path fill-rule="evenodd" clip-rule="evenodd" d="M193.996 223.807C194.023 222.316 193.791 220.766 193.269 219.234C191.203 213.166 185.377 209.688 180.257 211.465C175.137 213.242 172.661 219.601 174.727 225.668C175.383 227.596 176.419 229.262 177.692 230.582L193.996 223.807Z" fill="url(#paint23_linear_300_189)"/>
<circle cx="185.498" cy="220.501" r="7.5" fill="#171715"/>
<circle cx="187.755" cy="217.5" r="2.5" fill="#FEFEFC"/>
<circle cx="187.755" cy="217.5" r="2.5" fill="#FEFEFC"/>
<circle cx="187.755" cy="217.5" r="2.5" fill="#FEFEFC"/>
<circle cx="192.998" cy="221.001" r="1" fill="#FEFEFC"/>
<circle cx="192.998" cy="221.001" r="1" fill="#FEFEFC"/>
<circle cx="192.998" cy="221.001" r="1" fill="#FEFEFC"/>
<path fill-rule="evenodd" clip-rule="evenodd" d="M255.39 198.363C255.214 196.631 254.837 194.862 254.243 193.093C250.661 182.426 240.566 175.803 231.695 178.301C222.824 180.799 218.535 191.471 222.117 202.138C223.012 204.805 224.315 207.22 225.904 209.302L255.39 198.363Z" fill="#EFEFEF"/>
<mask id="path-39-inside-7_300_189" fill="white">
<path fill-rule="evenodd" clip-rule="evenodd" d="M254.24 200.443C254.178 198.917 253.952 197.352 253.548 195.78C251.112 186.3 243.129 180.159 235.718 182.064C228.307 183.968 224.274 193.196 226.71 202.676C227.319 205.047 228.275 207.208 229.482 209.088L254.24 200.443Z"/>
</mask>
<path fill-rule="evenodd" clip-rule="evenodd" d="M254.24 200.443C254.178 198.917 253.952 197.352 253.548 195.78C251.112 186.3 243.129 180.159 235.718 182.064C228.307 183.968 224.274 193.196 226.71 202.676C227.319 205.047 228.275 207.208 229.482 209.088L254.24 200.443Z" fill="#FEFFFA"/>
<path d="M253.548 195.78L254.516 195.531L253.548 195.78ZM254.24 200.443L254.57 201.387L255.269 201.143L255.239 200.402L254.24 200.443ZM235.718 182.064L235.967 183.032L235.718 182.064ZM226.71 202.676L225.741 202.925L225.741 202.925L226.71 202.676ZM229.482 209.088L228.641 209.628L229.067 210.292L229.812 210.032L229.482 209.088ZM252.579 196.029C252.966 197.533 253.181 199.028 253.241 200.484L255.239 200.402C255.174 198.806 254.938 197.171 254.516 195.531L252.579 196.029ZM235.967 183.032C242.635 181.319 250.22 186.849 252.579 196.029L254.516 195.531C252.003 185.752 243.624 179 235.469 181.095L235.967 183.032ZM227.678 202.427C225.319 193.247 229.299 184.746 235.967 183.032L235.469 181.095C227.315 183.19 223.228 193.146 225.741 202.925L227.678 202.427ZM230.323 208.547C229.175 206.759 228.261 204.696 227.678 202.427L225.741 202.925C226.377 205.397 227.375 207.658 228.641 209.628L230.323 208.547ZM229.812 210.032L254.57 201.387L253.91 199.499L229.152 208.144L229.812 210.032Z" fill="url(#paint24_linear_300_189)" mask="url(#path-39-inside-7_300_189)"/>
<path fill-rule="evenodd" clip-rule="evenodd" d="M253.797 201.598C253.964 200.124 253.875 198.565 253.493 196.997C251.978 190.787 246.431 186.785 241.102 188.057C235.773 189.33 232.681 195.396 234.195 201.606C234.676 203.579 235.565 205.329 236.724 206.758L253.797 201.598Z" fill="url(#paint25_linear_300_189)"/>
<circle cx="244.499" cy="197.5" r="7.5" fill="#171715"/>
<circle cx="245.755" cy="193.5" r="2.5" fill="#FEFEFC"/>
<circle cx="245.755" cy="193.5" r="2.5" fill="#FEFEFC"/>
<circle cx="245.755" cy="193.5" r="2.5" fill="#FEFEFC"/>
<circle cx="251.255" cy="197" r="1" fill="#FEFEFC"/>
<circle cx="251.255" cy="197" r="1" fill="#FEFEFC"/>
<circle cx="251.255" cy="197" r="1" fill="#FEFEFC"/>
<path d="M230.496 170.903C235.166 170.068 236.881 171.725 237.349 172.409C236.638 173.821 234.308 172.47 231.618 173.593C227.854 175.164 225.43 176.795 224.962 176.111C224.493 175.428 225.682 172.726 230.496 170.903Z" fill="#CFCFCF"/>
<path d="M163.11 197.979C167.292 195.741 169.435 196.786 170.092 197.291C169.853 198.854 167.22 198.29 165.009 200.191C161.915 202.85 160.114 205.149 159.458 204.644C158.801 204.14 159.096 201.203 163.11 197.979Z" fill="#CFCFCF"/>
<path d="M226.544 216.37C228.006 217.312 228.552 219.131 227.973 220.771C225.115 228.868 218.896 232.505 217.485 233.206C212.72 235.574 208.008 235.766 202.123 233.402C201.067 232.978 200.178 232.147 200.069 231.014C199.583 225.947 204.048 216.283 207.026 212.788C207.649 212.056 208.592 211.744 209.553 211.748C216.856 211.775 222.966 214.066 226.544 216.37Z" fill="#F3F3F3"/>
<path d="M224.493 213.034C226.281 213.898 226.906 216.019 226.038 217.805C222.705 224.659 216.773 228.043 215.403 228.724C210.744 231.04 206.261 231.526 200.865 229.945C199.637 229.585 198.599 228.653 198.651 227.375C198.839 222.761 203.662 214.328 206.644 211.31C207.222 210.725 208.021 210.449 208.843 210.396C215.515 209.967 221.053 211.369 224.493 213.034Z" fill="#F8B274"/>
<path d="M201.199 228.074L210.874 222.057C211.657 221.57 212.503 221.193 213.389 220.938L226.425 217.187L213.15 220.616C212.026 220.906 210.961 221.391 210.002 222.047L201.199 228.074Z" fill="#D69656"/>
<circle opacity="0.25" cx="271" cy="208" r="20" fill="url(#paint26_radial_300_189)"/>
<circle opacity="0.25" cx="162" cy="253" r="20" fill="url(#paint27_radial_300_189)"/>
<ellipse opacity="0.77" cx="230.5" cy="421" rx="189.5" ry="29" fill="url(#paint28_radial_300_189)" fill-opacity="0.59"/>
<path d="M303 243.255C303 245.323 301.433 247 299.5 247C297.567 247 296 245.323 296 243.255C296 241.187 298.333 237.638 299.733 236C301.133 237.872 303 241.187 303 243.255Z" fill="url(#paint29_linear_300_189)"/>
<path d="M297 254.617C297 255.933 296.105 257 295 257C293.895 257 293 255.933 293 254.617C293 253.301 294.333 251.043 295.133 250C295.933 251.191 297 253.301 297 254.617Z" fill="url(#paint30_linear_300_189)"/>
<defs>
<filter id="filter0_d_300_189" x="290.181" y="131.049" width="81.2996" height="90.1024" filterUnits="userSpaceOnUse" color-interpolation-filters="sRGB">
<feFlood flood-opacity="0" result="BackgroundImageFix"/>
<feColorMatrix in="SourceAlpha" type="matrix" values="0 0 0 0 0 0 0 0 0 0 0 0 0 0 0 0 0 0 127 0" result="hardAlpha"/>
<feOffset dy="4"/>
<feGaussianBlur stdDeviation="2"/>
<feComposite in2="hardAlpha" operator="out"/>
<feColorMatrix type="matrix" values="0 0 0 0 0 0 0 0 0 0 0 0 0 0 0 0 0 0 0.25 0"/>
<feBlend mode="normal" in2="BackgroundImageFix" result="effect1_dropShadow_300_189"/>
<feBlend mode="normal" in="SourceGraphic" in2="effect1_dropShadow_300_189" result="shape"/>
</filter>
<filter id="filter1_d_300_189" x="360.552" y="117.145" width="80.0129" height="89.1095" filterUnits="userSpaceOnUse" color-interpolation-filters="sRGB">
<feFlood flood-opacity="0" result="BackgroundImageFix"/>
<feColorMatrix in="SourceAlpha" type="matrix" values="0 0 0 0 0 0 0 0 0 0 0 0 0 0 0 0 0 0 127 0" result="hardAlpha"/>
<feOffset dy="4"/>
<feGaussianBlur stdDeviation="2"/>
<feComposite in2="hardAlpha" operator="out"/>
<feColorMatrix type="matrix" values="0 0 0 0 0 0 0 0 0 0 0 0 0 0 0 0 0 0 0.25 0"/>
<feBlend mode="normal" in2="BackgroundImageFix" result="effect1_dropShadow_300_189"/>
<feBlend mode="normal" in="SourceGraphic" in2="effect1_dropShadow_300_189" result="shape"/>
</filter>
<filter id="filter2_d_300_189" x="425.237" y="90.4895" width="108.232" height="130.944" filterUnits="userSpaceOnUse" color-interpolation-filters="sRGB">
<feFlood flood-opacity="0" result="BackgroundImageFix"/>
<feColorMatrix in="SourceAlpha" type="matrix" values="0 0 0 0 0 0 0 0 0 0 0 0 0 0 0 0 0 0 127 0" result="hardAlpha"/>
<feOffset dy="4"/>
<feGaussianBlur stdDeviation="2"/>
<feComposite in2="hardAlpha" operator="out"/>
<feColorMatrix type="matrix" values="0 0 0 0 0 0 0 0 0 0 0 0 0 0 0 0 0 0 0.25 0"/>
<feBlend mode="normal" in2="BackgroundImageFix" result="effect1_dropShadow_300_189"/>
<feBlend mode="normal" in="SourceGraphic" in2="effect1_dropShadow_300_189" result="shape"/>
</filter>
<filter id="filter3_d_300_189" x="45.4696" y="132.305" width="70.4613" height="86.9645" filterUnits="userSpaceOnUse" color-interpolation-filters="sRGB">
<feFlood flood-opacity="0" result="BackgroundImageFix"/>
<feColorMatrix in="SourceAlpha" type="matrix" values="0 0 0 0 0 0 0 0 0 0 0 0 0 0 0 0 0 0 127 0" result="hardAlpha"/>
<feOffset dy="4"/>
<feGaussianBlur stdDeviation="2"/>
<feComposite in2="hardAlpha" operator="out"/>
<feColorMatrix type="matrix" values="0 0 0 0 0 0 0 0 0 0 0 0 0 0 0 0 0 0 0.25 0"/>
<feBlend mode="normal" in2="BackgroundImageFix" result="effect1_dropShadow_300_189"/>
<feBlend mode="normal" in="SourceGraphic" in2="effect1_dropShadow_300_189" result="shape"/>
</filter>
<filter id="filter4_d_300_189" x="348.415" y="24.2326" width="37.3026" height="33.9232" filterUnits="userSpaceOnUse" color-interpolation-filters="sRGB">
<feFlood flood-opacity="0" result="BackgroundImageFix"/>
<feColorMatrix in="SourceAlpha" type="matrix" values="0 0 0 0 0 0 0 0 0 0 0 0 0 0 0 0 0 0 127 0" result="hardAlpha"/>
<feOffset dy="4"/>
<feGaussianBlur stdDeviation="2"/>
<feComposite in2="hardAlpha" operator="out"/>
<feColorMatrix type="matrix" values="0 0 0 0 0 0 0 0 0 0 0 0 0 0 0 0 0 0 0.25 0"/>
<feBlend mode="normal" in2="BackgroundImageFix" result="effect1_dropShadow_300_189"/>
<feBlend mode="normal" in="SourceGraphic" in2="effect1_dropShadow_300_189" result="shape"/>
</filter>
<filter id="filter5_d_300_189" x="123.415" y="2.2326" width="37.3026" height="33.9232" filterUnits="userSpaceOnUse" color-interpolation-filters="sRGB">
<feFlood flood-opacity="0" result="BackgroundImageFix"/>
<feColorMatrix in="SourceAlpha" type="matrix" values="0 0 0 0 0 0 0 0 0 0 0 0 0 0 0 0 0 0 127 0" result="hardAlpha"/>
<feOffset dy="4"/>
<feGaussianBlur stdDeviation="2"/>
<feComposite in2="hardAlpha" operator="out"/>
<feColorMatrix type="matrix" values="0 0 0 0 0 0 0 0 0 0 0 0 0 0 0 0 0 0 0.25 0"/>
<feBlend mode="normal" in2="BackgroundImageFix" result="effect1_dropShadow_300_189"/>
<feBlend mode="normal" in="SourceGraphic" in2="effect1_dropShadow_300_189" result="shape"/>
</filter>
<filter id="filter6_d_300_189" x="1.99365" y="80.6488" width="37.3906" height="33.5205" filterUnits="userSpaceOnUse" color-interpolation-filters="sRGB">
<feFlood flood-opacity="0" result="BackgroundImageFix"/>
<feColorMatrix in="SourceAlpha" type="matrix" values="0 0 0 0 0 0 0 0 0 0 0 0 0 0 0 0 0 0 127 0" result="hardAlpha"/>
<feOffset dy="4"/>
<feGaussianBlur stdDeviation="2"/>
<feComposite in2="hardAlpha" operator="out"/>
<feColorMatrix type="matrix" values="0 0 0 0 0 0 0 0 0 0 0 0 0 0 0 0 0 0 0.25 0"/>
<feBlend mode="normal" in2="BackgroundImageFix" result="effect1_dropShadow_300_189"/>
<feBlend mode="normal" in="SourceGraphic" in2="effect1_dropShadow_300_189" result="shape"/>
</filter>
<filter id="filter7_d_300_189" x="520.16" y="38.2326" width="37.3026" height="33.9232" filterUnits="userSpaceOnUse" color-interpolation-filters="sRGB">
<feFlood flood-opacity="0" result="BackgroundImageFix"/>
<feColorMatrix in="SourceAlpha" type="matrix" values="0 0 0 0 0 0 0 0 0 0 0 0 0 0 0 0 0 0 127 0" result="hardAlpha"/>
<feOffset dy="4"/>
<feGaussianBlur stdDeviation="2"/>
<feComposite in2="hardAlpha" operator="out"/>
<feColorMatrix type="matrix" values="0 0 0 0 0 0 0 0 0 0 0 0 0 0 0 0 0 0 0.25 0"/>
<feBlend mode="normal" in2="BackgroundImageFix" result="effect1_dropShadow_300_189"/>
<feBlend mode="normal" in="SourceGraphic" in2="effect1_dropShadow_300_189" result="shape"/>
</filter>
<filter id="filter8_d_300_189" x="178" y="225" width="120.929" height="109.803" filterUnits="userSpaceOnUse" color-interpolation-filters="sRGB">
<feFlood flood-opacity="0" result="BackgroundImageFix"/>
<feColorMatrix in="SourceAlpha" type="matrix" values="0 0 0 0 0 0 0 0 0 0 0 0 0 0 0 0 0 0 127 0" result="hardAlpha"/>
<feOffset dy="4"/>
<feGaussianBlur stdDeviation="2"/>
<feComposite in2="hardAlpha" operator="out"/>
<feColorMatrix type="matrix" values="0 0 0 0 0 0 0 0 0 0 0 0 0 0 0 0 0 0 0.25 0"/>
<feBlend mode="normal" in2="BackgroundImageFix" result="effect1_dropShadow_300_189"/>
<feBlend mode="normal" in="SourceGraphic" in2="effect1_dropShadow_300_189" result="shape"/>
</filter>
<linearGradient id="paint0_linear_300_189" x1="302.975" y1="257.305" x2="282.158" y2="244.357" gradientUnits="userSpaceOnUse">
<stop stop-color="#C82C48"/>
<stop offset="0.1875" stop-color="#EA4E6A"/>
<stop offset="0.369792" stop-color="#FA5E7A"/>
<stop offset="0.505208" stop-color="#F75B77"/>
<stop offset="0.640625" stop-color="#EC506C"/>
<stop offset="0.770833" stop-color="#E94D69"/>
<stop offset="0.854167" stop-color="#E34763"/>
<stop offset="0.947917" stop-color="#C82C48"/>
</linearGradient>
<linearGradient id="paint1_linear_300_189" x1="344.838" y1="149.631" x2="345.129" y2="164.817" gradientUnits="userSpaceOnUse">
<stop stop-color="#823140"/>
<stop offset="0.28125" stop-color="#B05F6E"/>
<stop offset="0.505208" stop-color="#AC5B6A"/>
<stop offset="0.760417" stop-color="#B05F6E"/>
<stop offset="0.994792" stop-color="#823140"/>
</linearGradient>
<linearGradient id="paint2_linear_300_189" x1="370.833" y1="242.27" x2="350.306" y2="228.867" gradientUnits="userSpaceOnUse">
<stop stop-color="#C82C48"/>
<stop offset="0.1875" stop-color="#EA4E6A"/>
<stop offset="0.369792" stop-color="#FA5E7A"/>
<stop offset="0.505208" stop-color="#F75B77"/>
<stop offset="0.640625" stop-color="#EC506C"/>
<stop offset="0.770833" stop-color="#E94D69"/>
<stop offset="0.854167" stop-color="#E34763"/>
<stop offset="0.947917" stop-color="#C82C48"/>
</linearGradient>
<linearGradient id="paint3_linear_300_189" x1="415.057" y1="135.544" x2="415.014" y2="150.733" gradientUnits="userSpaceOnUse">
<stop stop-color="#823140"/>
<stop offset="0.28125" stop-color="#B05F6E"/>
<stop offset="0.505208" stop-color="#AC5B6A"/>
<stop offset="0.760417" stop-color="#B05F6E"/>
<stop offset="0.994792" stop-color="#823140"/>
</linearGradient>
<linearGradient id="paint4_linear_300_189" x1="451.913" y1="224.914" x2="428.494" y2="210.979" gradientUnits="userSpaceOnUse">
<stop stop-color="#C82C48"/>
<stop offset="0.1875" stop-color="#EA4E6A"/>
<stop offset="0.369792" stop-color="#FA5E7A"/>
<stop offset="0.505208" stop-color="#F75B77"/>
<stop offset="0.640625" stop-color="#EC506C"/>
<stop offset="0.770833" stop-color="#E94D69"/>
<stop offset="0.854167" stop-color="#E34763"/>
<stop offset="0.947917" stop-color="#C82C48"/>
</linearGradient>
<linearGradient id="paint5_linear_300_189" x1="494.289" y1="107.348" x2="497.158" y2="122.361" gradientUnits="userSpaceOnUse">
<stop stop-color="#823140"/>
<stop offset="0.28125" stop-color="#B05F6E"/>
<stop offset="0.505208" stop-color="#AC5B6A"/>
<stop offset="0.760417" stop-color="#B05F6E"/>
<stop offset="0.994792" stop-color="#823140"/>
</linearGradient>
<linearGradient id="paint6_linear_300_189" x1="36.1422" y1="243.778" x2="20.6288" y2="225.374" gradientUnits="userSpaceOnUse">
<stop stop-color="#C82C48"/>
<stop offset="0.1875" stop-color="#EA4E6A"/>
<stop offset="0.369792" stop-color="#FA5E7A"/>
<stop offset="0.505208" stop-color="#F75B77"/>
<stop offset="0.640625" stop-color="#EC506C"/>
<stop offset="0.770833" stop-color="#E94D69"/>
<stop offset="0.854167" stop-color="#E34763"/>
<stop offset="0.947917" stop-color="#C82C48"/>
</linearGradient>
<linearGradient id="paint7_linear_300_189" x1="108.625" y1="155.3" x2="103.876" y2="169.708" gradientUnits="userSpaceOnUse">
<stop stop-color="#823140"/>
<stop offset="0.28125" stop-color="#B05F6E"/>
<stop offset="0.505208" stop-color="#AC5B6A"/>
<stop offset="0.760417" stop-color="#B05F6E"/>
<stop offset="0.994792" stop-color="#823140"/>
</linearGradient>
<linearGradient id="paint8_linear_300_189" x1="359.671" y1="43.0341" x2="382.94" y2="31.971" gradientUnits="userSpaceOnUse">
<stop stop-color="#C82C48"/>
<stop offset="0.1875" stop-color="#EA4E6A"/>
<stop offset="0.369792" stop-color="#FA5E7A"/>
<stop offset="0.505208" stop-color="#F75B77"/>
<stop offset="0.640625" stop-color="#EC506C"/>
<stop offset="0.770833" stop-color="#E94D69"/>
<stop offset="0.854167" stop-color="#E34763"/>
<stop offset="0.947917" stop-color="#C82C48"/>
</linearGradient>
<linearGradient id="paint9_linear_300_189" x1="380.396" y1="26.7911" x2="356.046" y2="44.3241" gradientUnits="userSpaceOnUse">
<stop stop-color="#823140"/>
<stop offset="0.28125" stop-color="#B05F6E"/>
<stop offset="0.505208" stop-color="#AC5B6A"/>
<stop offset="0.760417" stop-color="#B05F6E"/>
<stop offset="0.994792" stop-color="#823140"/>
</linearGradient>
<linearGradient id="paint10_linear_300_189" x1="134.671" y1="21.0341" x2="157.94" y2="9.97101" gradientUnits="userSpaceOnUse">
<stop stop-color="#C82C48"/>
<stop offset="0.1875" stop-color="#EA4E6A"/>
<stop offset="0.369792" stop-color="#FA5E7A"/>
<stop offset="0.505208" stop-color="#F75B77"/>
<stop offset="0.640625" stop-color="#EC506C"/>
<stop offset="0.770833" stop-color="#E94D69"/>
<stop offset="0.854167" stop-color="#E34763"/>
<stop offset="0.947917" stop-color="#C82C48"/>
</linearGradient>
<linearGradient id="paint11_linear_300_189" x1="155.396" y1="4.79108" x2="131.046" y2="22.3241" gradientUnits="userSpaceOnUse">
<stop stop-color="#823140"/>
<stop offset="0.28125" stop-color="#B05F6E"/>
<stop offset="0.505208" stop-color="#AC5B6A"/>
<stop offset="0.760417" stop-color="#B05F6E"/>
<stop offset="0.994792" stop-color="#823140"/>
</linearGradient>
<linearGradient id="paint12_linear_300_189" x1="9.98195" y1="94.7583" x2="35.7452" y2="95.0638" gradientUnits="userSpaceOnUse">
<stop stop-color="#C82C48"/>
<stop offset="0.1875" stop-color="#EA4E6A"/>
<stop offset="0.369792" stop-color="#FA5E7A"/>
<stop offset="0.505208" stop-color="#F75B77"/>
<stop offset="0.640625" stop-color="#EC506C"/>
<stop offset="0.770833" stop-color="#E94D69"/>
<stop offset="0.854167" stop-color="#E34763"/>
<stop offset="0.947917" stop-color="#C82C48"/>
</linearGradient>
<linearGradient id="paint13_linear_300_189" x1="35.7407" y1="89.2931" x2="6.15917" y2="94.3215" gradientUnits="userSpaceOnUse">
<stop stop-color="#823140"/>
<stop offset="0.28125" stop-color="#B05F6E"/>
<stop offset="0.505208" stop-color="#AC5B6A"/>
<stop offset="0.760417" stop-color="#B05F6E"/>
<stop offset="0.994792" stop-color="#823140"/>
</linearGradient>
<linearGradient id="paint14_linear_300_189" x1="531.416" y1="57.0341" x2="554.685" y2="45.971" gradientUnits="userSpaceOnUse">
<stop stop-color="#C82C48"/>
<stop offset="0.1875" stop-color="#EA4E6A"/>
<stop offset="0.369792" stop-color="#FA5E7A"/>
<stop offset="0.505208" stop-color="#F75B77"/>
<stop offset="0.640625" stop-color="#EC506C"/>
<stop offset="0.770833" stop-color="#E94D69"/>
<stop offset="0.854167" stop-color="#E34763"/>
<stop offset="0.947917" stop-color="#C82C48"/>
</linearGradient>
<linearGradient id="paint15_linear_300_189" x1="552.141" y1="40.7911" x2="527.791" y2="58.3241" gradientUnits="userSpaceOnUse">
<stop stop-color="#823140"/>
<stop offset="0.28125" stop-color="#B05F6E"/>
<stop offset="0.505208" stop-color="#AC5B6A"/>
<stop offset="0.760417" stop-color="#B05F6E"/>
<stop offset="0.994792" stop-color="#823140"/>
</linearGradient>
<linearGradient id="paint16_linear_300_189" x1="250.5" y1="98.5" x2="250" y2="166" gradientUnits="userSpaceOnUse">
<stop stop-color="#4D5B7E"/>
<stop offset="0.458333" stop-color="#4E5C75"/>
<stop offset="0.583333" stop-color="#48566F"/>
<stop offset="0.661458" stop-color="#45536C"/>
<stop offset="0.760417" stop-color="#3D4B64"/>
<stop offset="0.869792" stop-color="#35435C"/>
<stop offset="1" stop-color="#303E57"/>
</linearGradient>
<linearGradient id="paint17_linear_300_189" x1="180" y1="148" x2="254" y2="256.5" gradientUnits="userSpaceOnUse">
<stop stop-color="#56647D"/>
<stop offset="0.164945" stop-color="#4C5A73"/>
<stop offset="0.229167" stop-color="#4A586F"/>
<stop offset="0.306385" stop-color="#465468"/>
<stop offset="0.471925" stop-color="#3B4962"/>
<stop offset="0.695391" stop-color="#4B5972"/>
<stop offset="0.994792" stop-color="#4D5B74"/>
</linearGradient>
<linearGradient id="paint18_linear_300_189" x1="213.5" y1="304" x2="299" y2="251.5" gradientUnits="userSpaceOnUse">
<stop stop-color="#C82C48"/>
<stop offset="0.1875" stop-color="#EA4E6A"/>
<stop offset="0.369792" stop-color="#FA5E7A"/>
<stop offset="0.505208" stop-color="#F75B77"/>
<stop offset="0.640625" stop-color="#EC506C"/>
<stop offset="0.770833" stop-color="#E94D69"/>
<stop offset="0.854167" stop-color="#E34763"/>
<stop offset="0.947917" stop-color="#C82C48"/>
</linearGradient>
<linearGradient id="paint19_linear_300_189" x1="287" y1="232.5" x2="200" y2="310.5" gradientUnits="userSpaceOnUse">
<stop stop-color="#823140"/>
<stop offset="0.42421" stop-color="#39282B"/>
<stop offset="0.505208" stop-color="#4A3539"/>
<stop offset="0.760417" stop-color="#B05F6E"/>
<stop offset="0.994792" stop-color="#823140"/>
</linearGradient>
<linearGradient id="paint20_linear_300_189" x1="295.5" y1="225" x2="254.5" y2="255.5" gradientUnits="userSpaceOnUse">
<stop stop-color="#414F68"/>
<stop offset="0.229167" stop-color="#47556E"/>
<stop offset="0.416667" stop-color="#4B5972"/>
<stop offset="0.6875" stop-color="#58667F"/>
<stop offset="0.90625" stop-color="#57657E"/>
</linearGradient>
<linearGradient id="paint21_linear_300_189" x1="204.5" y1="276" x2="154.5" y2="279" gradientUnits="userSpaceOnUse">
<stop stop-color="#58667F"/>
<stop offset="0.145833" stop-color="#515F78"/>
<stop offset="0.338542" stop-color="#495770"/>
<stop offset="0.463542" stop-color="#44526B"/>
<stop offset="0.651042" stop-color="#414F68"/>
<stop offset="0.932292" stop-color="#303E57"/>
</linearGradient>
<linearGradient id="paint22_linear_300_189" x1="171.498" y1="207.501" x2="180.998" y2="229.501" gradientUnits="userSpaceOnUse">
<stop/>
<stop offset="1" stop-opacity="0"/>
</linearGradient>
<linearGradient id="paint23_linear_300_189" x1="178.498" y1="214.001" x2="190.998" y2="228.501" gradientUnits="userSpaceOnUse">
<stop stop-color="#6E849B"/>
<stop offset="0.953822" stop-color="#8897AA" stop-opacity="0"/>
</linearGradient>
<linearGradient id="paint24_linear_300_189" x1="233.499" y1="183" x2="241.499" y2="204" gradientUnits="userSpaceOnUse">
<stop/>
<stop offset="1" stop-opacity="0"/>
</linearGradient>
<linearGradient id="paint25_linear_300_189" x1="239.091" y1="190.402" x2="250.066" y2="206.151" gradientUnits="userSpaceOnUse">
<stop stop-color="#6E849B"/>
<stop offset="0.953822" stop-color="#8897AA" stop-opacity="0"/>
</linearGradient>
<radialGradient id="paint26_radial_300_189" cx="0" cy="0" r="1" gradientUnits="userSpaceOnUse" gradientTransform="translate(271 208) rotate(90) scale(20)">
<stop stop-color="#D23757"/>
<stop offset="1" stop-color="#D23757" stop-opacity="0"/>
</radialGradient>
<radialGradient id="paint27_radial_300_189" cx="0" cy="0" r="1" gradientUnits="userSpaceOnUse" gradientTransform="translate(162 253) rotate(90) scale(20)">
<stop stop-color="#D23757"/>
<stop offset="1" stop-color="#D23757" stop-opacity="0"/>
</radialGradient>
<radialGradient id="paint28_radial_300_189" cx="0" cy="0" r="1" gradientUnits="userSpaceOnUse" gradientTransform="translate(230.5 421) rotate(90) scale(29 189.5)">
<stop stop-color="#C4C4C4"/>
<stop offset="1" stop-color="#C4C4C4" stop-opacity="0"/>
</radialGradient>
<linearGradient id="paint29_linear_300_189" x1="300" y1="240" x2="299.5" y2="247" gradientUnits="userSpaceOnUse">
<stop stop-color="#CBDDF1"/>
<stop offset="1" stop-color="#CBDDF1" stop-opacity="0"/>
</linearGradient>
<linearGradient id="paint30_linear_300_189" x1="295.286" y1="252.545" x2="294.932" y2="256.995" gradientUnits="userSpaceOnUse">
<stop stop-color="#CBDDF1"/>
<stop offset="1" stop-color="#CBDDF1" stop-opacity="0"/>
</linearGradient>
</defs>
</svg>
