<svg width="19" height="18" viewBox="0 0 19 18" fill="none" xmlns="http://www.w3.org/2000/svg">
<path fill-rule="evenodd" clip-rule="evenodd" d="M11.3002 11.0319C9.20615 12.9629 5.81095 12.9629 3.71685 11.0319C1.62276 9.10092 1.62276 5.97017 3.71685 4.03918C5.81095 2.10819 9.20614 2.10819 11.3002 4.03918C13.3943 5.97017 13.3943 9.10092 11.3002 11.0319ZM11.9443 12.8969C9.07757 14.9189 4.95995 14.721 2.33805 12.3033C-0.517531 9.67015 -0.517531 5.40094 2.33805 2.76777C5.19364 0.134604 9.82345 0.134604 12.679 2.76777C15.3008 5.18535 15.5155 8.98202 13.323 11.6254L18.5391 16.4352L17.1603 17.7066L11.9443 12.8969Z" fill="#999999"/>
</svg>
