<svg width="24" height="24" viewBox="0 0 24 24" fill="none" xmlns="http://www.w3.org/2000/svg">
<path d="M22.5546 9.52877H21.6036C20.8278 9.52877 20.1771 8.86019 20.1771 8.06665C20.1771 7.66675 20.346 7.30435 20.6463 7.03567L21.2595 6.43582C21.8664 5.83598 21.8664 4.85499 21.2595 4.25514L19.8643 2.87425C19.589 2.59932 19.1823 2.43687 18.7694 2.43687C18.3565 2.43687 17.9561 2.59932 17.6745 2.87425L17.0864 3.4616C16.8049 3.77402 16.4295 3.94272 16.0228 3.94272C15.222 3.94272 14.5525 3.29289 14.5525 2.52434V1.56834C14.5525 0.724811 13.8706 0 13.0197 0H11.1177C10.2669 0 9.59116 0.718563 9.59116 1.56834V2.51809C9.59116 3.28664 8.92172 3.93647 8.12089 3.93647C7.72048 3.93647 7.35135 3.76777 7.08232 3.4741L6.47544 2.87425C6.20016 2.59307 5.79349 2.43687 5.38056 2.43687C4.96763 2.43687 4.56722 2.59932 4.28568 2.87425L2.87797 4.24889C2.27735 4.84874 2.27735 5.82973 2.87797 6.42333L3.46608 7.01067C3.77891 7.29185 3.95409 7.66675 3.95409 8.06665C3.95409 8.86644 3.30341 9.52877 2.52761 9.52877H1.57663C0.719494 9.52877 0 10.1973 0 11.0471V11.9969V12.9466C0 13.7902 0.719494 14.465 1.57663 14.465H2.52761C3.30341 14.465 3.95409 15.1336 3.95409 15.9271C3.95409 16.327 3.77891 16.7019 3.46608 16.9831L2.87797 17.5642C2.27735 18.164 2.27735 19.145 2.87797 19.7386L4.27317 21.1257C4.54845 21.4069 4.95512 21.5631 5.36805 21.5631C5.78098 21.5631 6.18139 21.4007 6.46293 21.1257L7.06981 20.5259C7.33258 20.2322 7.70797 20.0635 8.10838 20.0635C8.90921 20.0635 9.57865 20.7134 9.57865 21.4819V22.4317C9.57865 23.2752 10.2543 24 11.1115 24H13.0135C13.8643 24 14.54 23.2814 14.54 22.4317V21.4819C14.54 20.7134 15.2095 20.0635 16.0103 20.0635C16.4107 20.0635 16.7861 20.2385 17.0739 20.5446L17.662 21.132C17.9435 21.4069 18.344 21.5694 18.7569 21.5694C19.1698 21.5694 19.5702 21.4069 19.8518 21.132L21.247 19.7449C21.8476 19.145 21.8476 18.164 21.247 17.5642L20.6338 16.9643C20.3335 16.6957 20.1646 16.327 20.1646 15.9334C20.1646 15.1336 20.8153 14.4712 21.5911 14.4712H22.542C23.3929 14.4712 23.9998 13.8027 23.9998 12.9529V11.9969V11.0471C24.0123 10.1973 23.4054 9.52877 22.5546 9.52877ZM17.0676 11.9969C17.0676 14.7524 14.8341 16.9956 12.0625 16.9956C9.29085 16.9956 7.0573 14.7524 7.0573 11.9969C7.0573 9.24134 9.29085 6.99818 12.0625 6.99818C14.8341 6.99818 17.0676 9.24134 17.0676 11.9969Z" fill="white"/>
</svg>
