<svg width="22" height="18" viewBox="0 0 22 18" fill="none" xmlns="http://www.w3.org/2000/svg">
<path fill-rule="evenodd" clip-rule="evenodd" d="M6.79929 14.5713H5.48572C2.45604 14.5713 0 12.1153 0 9.08559C0 6.05592 2.45604 3.59988 5.48572 3.59988H6.70208C7.8804 1.4543 10.1614 0 12.7821 0C13.4201 0 13.9374 0.517247 13.9374 1.1553V16.8447C13.9374 17.4828 13.4201 18 12.7821 18C10.2317 18 8.00304 16.6227 6.79929 14.5713Z" fill="white"/>
<path d="M16.6448 12.5557C16.4839 12.555 16.3267 12.5068 16.1932 12.4174C16.0596 12.3279 15.9556 12.2011 15.8941 12.053C15.8326 11.9048 15.8164 11.7418 15.8476 11.5845C15.8788 11.4272 15.9559 11.2826 16.0693 11.1688C16.3411 10.8982 16.5567 10.5768 16.7037 10.2232C16.8508 9.86952 16.9265 9.49045 16.9265 9.10764C16.9265 8.72483 16.8508 8.34576 16.7037 7.9921C16.5567 7.63844 16.3411 7.31712 16.0693 7.04648C15.9161 6.89385 15.8301 6.68683 15.8301 6.47098C15.8301 6.25513 15.9161 6.04812 16.0693 5.89548C16.2225 5.74285 16.4303 5.6571 16.647 5.6571C16.8636 5.6571 17.0714 5.74285 17.2246 5.89548C18.0778 6.74751 18.557 7.90192 18.557 9.10547C18.557 10.309 18.0778 11.4634 17.2246 12.3155C17.1487 12.3916 17.0583 12.4521 16.9588 12.4933C16.8593 12.5346 16.7526 12.5558 16.6448 12.5557Z" fill="white"/>
<path d="M19.0563 14.9647C18.8947 14.9648 18.7367 14.9171 18.6024 14.8277C18.468 14.7383 18.3633 14.6113 18.3014 14.4625C18.2396 14.3138 18.2234 14.1502 18.255 13.9923C18.2865 13.8344 18.3643 13.6894 18.4786 13.5756C19.6882 12.3679 20.3675 10.7315 20.3675 9.02535C20.3675 7.31924 19.6882 5.6828 18.4786 4.47507C18.3254 4.32244 18.2394 4.11542 18.2394 3.89957C18.2394 3.68372 18.3254 3.4767 18.4786 3.32407C18.6318 3.17144 18.8396 3.08569 19.0563 3.08569C19.2729 3.08569 19.4807 3.17144 19.6339 3.32407C22.7889 6.47005 22.7889 11.5828 19.6339 14.7266C19.558 14.8022 19.468 14.8621 19.3689 14.9029C19.2698 14.9438 19.1635 14.9648 19.0563 14.9647Z" fill="white"/>
</svg>
