<svg width="23" height="24" viewBox="0 0 23 24" fill="none" xmlns="http://www.w3.org/2000/svg">
<path d="M21.6699 18.1537C21.4702 18.1641 21.2816 18.1641 21.0818 18.1641C17.853 18.1641 14.8128 16.9865 12.527 14.8398C10.2413 12.693 8.98752 9.8376 8.98752 6.80504C8.98752 5.07512 9.39806 3.40773 10.1637 1.89666V1.89666C10.5502 1.14715 9.98485 0.194409 9.17168 0.417853C9.099 0.437823 9.02652 0.458335 8.95423 0.479374C3.76144 2.02171 0 6.57577 0 11.9635C0 18.6122 5.73648 24 12.8155 24C16.7323 24 20.2275 22.3535 22.5797 19.7586C22.5893 19.748 22.5987 19.7374 22.6082 19.7267C23.2009 19.0616 22.5601 18.1189 21.6699 18.1537V18.1537Z" fill="white"/>
</svg>
