<svg width="30" height="30" viewBox="0 0 30 30" fill="none" xmlns="http://www.w3.org/2000/svg">
<path d="M20.625 5.625H9.375C4.19813 5.625 0 9.82313 0 15C0 20.1769 4.19813 24.375 9.375 24.375H20.625C25.8019 24.375 30 20.1769 30 15C30 9.82313 25.8019 5.625 20.625 5.625ZM20.625 22.5H9.375C5.23875 22.5 1.875 19.1363 1.875 15C1.875 10.8637 5.23875 7.5 9.375 7.5H20.625C24.7612 7.5 28.125 10.8637 28.125 15C28.125 19.1363 24.7612 22.5 20.625 22.5Z" fill="black"/>
<path d="M9.375 20.625C12.4816 20.625 15 18.1066 15 15C15 11.8934 12.4816 9.375 9.375 9.375C6.2684 9.375 3.75 11.8934 3.75 15C3.75 18.1066 6.2684 20.625 9.375 20.625Z" fill="black"/>
</svg>
