<svg width="21" height="23" viewBox="0 0 21 23" fill="none" xmlns="http://www.w3.org/2000/svg">
<path d="M20.4971 9.72357C20.1186 9.34302 19.5049 9.34302 19.1267 9.72357L13.5737 15.3076L10.2181 18.6818H10.2178C8.32531 20.5848 5.25749 20.5848 3.36499 18.6818C1.47249 16.7788 1.47249 13.694 3.36499 11.791C3.36547 11.7905 3.3662 11.7895 3.36668 11.7891L6.72114 8.41626L9.53723 5.58456L12.2736 2.83301C13.4095 1.69087 15.2501 1.69087 16.3855 2.83301C17.5211 3.97465 17.5211 5.82551 16.3855 6.9674L13.6488 9.71894L9.41294 13.9786L7.47659 15.9256C7.09813 16.3062 6.48442 16.3062 6.10597 15.9259C5.72752 15.5453 5.72752 14.928 6.10597 14.5474L8.04232 12.6003L14.3294 6.27841C14.7079 5.89786 14.7079 5.28075 14.3297 4.9002C13.9512 4.51965 13.3373 4.51965 12.9588 4.9002L4.7356 13.1695C3.60025 14.3111 3.6 16.1622 4.7356 17.3041C5.87095 18.4457 7.71209 18.4457 8.84744 17.3041L17.7563 8.34585H17.7561C19.6486 6.44286 19.6488 3.35779 17.7563 1.45504C15.8636 -0.448189 12.7957 -0.448189 10.9035 1.4548C10.9025 1.45577 10.9015 1.45675 10.9006 1.45772L1.99752 10.4094C1.99631 10.4109 1.99534 10.4118 1.99413 10.4128C-0.65527 13.0771 -0.65527 17.3964 1.99413 20.0603C4.64353 22.7244 8.93878 22.7244 11.5882 20.0603L20.4971 11.102C20.8757 10.7215 20.8757 10.1044 20.4971 9.72357Z" fill="#999999"/>
</svg>
