<svg width="41" height="41" viewBox="0 0 41 41" fill="none" xmlns="http://www.w3.org/2000/svg">
<path fill-rule="evenodd" clip-rule="evenodd" d="M36.4355 2.25984H4.43555C3.33098 2.25984 2.43555 3.15527 2.43555 4.25984V25.5265L15.0902 22.5737C15.9842 22.3652 16.8991 22.2598 17.817 22.2598H23.0541C23.972 22.2598 24.8869 22.3652 25.7809 22.5737L38.4355 25.5265V4.25984C38.4355 3.15527 37.5401 2.25984 36.4355 2.25984ZM4.43555 38.2598C3.33098 38.2598 2.43555 37.3644 2.43555 36.2598H38.4355C38.4355 37.3644 37.5401 38.2598 36.4355 38.2598H4.43555ZM4.43555 0.259842C2.22641 0.259842 0.435547 2.0507 0.435547 4.25984V36.2598C0.435547 38.469 2.22641 40.2598 4.43555 40.2598H36.4355C38.6447 40.2598 40.4355 38.469 40.4355 36.2598V4.25984C40.4355 2.0507 38.6447 0.259842 36.4355 0.259842H4.43555ZM11.3446 14.8053C13.3529 14.8053 14.981 13.1772 14.981 11.1689C14.981 9.16063 13.3529 7.53257 11.3446 7.53257C9.33631 7.53257 7.70825 9.16063 7.70825 11.1689C7.70825 13.1772 9.33631 14.8053 11.3446 14.8053Z" fill="#F0D1E6"></path>
</svg>
